# Blender 5.1.2
# www.blender.org
o Marker
v 0.000000 0.052000 0.000000 1.0000 1.0000 1.0000
v 0.780000 0.060000 0.000000 0.1517 0.1517 0.1517
v 0.815000 0.080000 0.000000 0.1517 0.1517 0.1517
v 0.900000 0.086000 0.000000 0.1517 0.1517 0.1517
v 1.000000 -0.052000 0.000000 0.1517 0.1517 0.1517
v 0.920000 -0.068000 0.000000 0.1517 0.1517 0.1517
v 0.000000 -0.068000 0.000000 0.1517 0.1517 0.1517
v 0.737184 0.052000 -0.064495 1.0000 1.0000 1.0000
v 0.777032 0.060000 -0.067981 0.1517 0.1517 0.1517
v 0.811899 0.080000 -0.071032 0.1517 0.1517 0.1517
v 0.896575 0.086000 -0.078440 0.1517 0.1517 0.1517
v 0.961328 0.080000 -0.084105 0.1517 0.1517 0.1517
v 0.996195 0.052000 -0.087156 0.1517 0.1517 0.1517
v 0.996195 -0.052000 -0.087156 0.1517 0.1517 0.1517
v 0.916499 -0.068000 -0.080183 0.1517 0.1517 0.1517
v 0.728758 0.052000 -0.128500 1.0000 1.0000 1.0000
v 0.768150 0.060000 -0.135446 0.1517 0.1517 0.1517
v 0.802618 0.080000 -0.141523 0.1517 0.1517 0.1517
v 0.886327 0.086000 -0.156283 0.1517 0.1517 0.1517
v 0.950339 0.080000 -0.167570 0.1517 0.1517 0.1517
v 0.984808 0.052000 -0.173648 0.1517 0.1517 0.1517
v 0.984808 -0.052000 -0.173648 0.1517 0.1517 0.1517
v 0.906023 -0.068000 -0.159756 0.1517 0.1517 0.1517
v 0.714785 0.052000 -0.191526 1.0000 1.0000 1.0000
v 0.753422 0.060000 -0.201879 0.1517 0.1517 0.1517
v 0.787230 0.080000 -0.210938 0.1517 0.1517 0.1517
v 0.869333 0.086000 -0.232937 0.1517 0.1517 0.1517
v 0.932118 0.080000 -0.249760 0.1517 0.1517 0.1517
v 0.965926 0.052000 -0.258819 0.1517 0.1517 0.1517
v 0.965926 -0.052000 -0.258819 0.1517 0.1517 0.1517
v 0.888652 -0.068000 -0.238114 0.1517 0.1517 0.1517
v 0.695373 0.052000 -0.253095 1.0000 1.0000 1.0000
v 0.732960 0.060000 -0.266776 0.1517 0.1517 0.1517
v 0.765850 0.080000 -0.278746 0.1517 0.1517 0.1517
v 0.845723 0.086000 -0.307818 0.1517 0.1517 0.1517
v 0.906803 0.080000 -0.330049 0.1517 0.1517 0.1517
v 0.939693 0.052000 -0.342020 0.1517 0.1517 0.1517
v 0.939693 -0.052000 -0.342020 0.1517 0.1517 0.1517
v 0.864517 -0.068000 -0.314659 0.1517 0.1517 0.1517
v 0.670668 0.052000 -0.312738 1.0000 1.0000 1.0000
v 0.706920 0.060000 -0.329642 0.1517 0.1517 0.1517
v 0.738641 0.080000 -0.344434 0.1517 0.1517 0.1517
v 0.815677 0.086000 -0.380356 0.1517 0.1517 0.1517
v 0.874587 0.080000 -0.407827 0.1517 0.1517 0.1517
v 0.906308 0.052000 -0.422618 0.1517 0.1517 0.1517
v 0.906308 -0.052000 -0.422618 0.1517 0.1517 0.1517
v 0.833803 -0.068000 -0.388809 0.1517 0.1517 0.1517
v 0.640859 0.052000 -0.370000 1.0000 1.0000 1.0000
v 0.675500 0.060000 -0.390000 0.1517 0.1517 0.1517
v 0.705811 0.080000 -0.407500 0.1517 0.1517 0.1517
v 0.779423 0.086000 -0.450000 0.1517 0.1517 0.1517
v 0.835715 0.080000 -0.482500 0.1517 0.1517 0.1517
v 0.866026 0.052000 -0.500000 0.1517 0.1517 0.1517
v 0.866026 -0.052000 -0.500000 0.1517 0.1517 0.1517
v 0.796744 -0.068000 -0.460000 0.1517 0.1517 0.1517
v 0.606173 0.052000 -0.424447 1.0000 1.0000 1.0000
v 0.638939 0.060000 -0.447390 0.1517 0.1517 0.1517
v 0.667609 0.080000 -0.467465 0.1517 0.1517 0.1517
v 0.737237 0.086000 -0.516219 0.1517 0.1517 0.1517
v 0.790482 0.080000 -0.553501 0.1517 0.1517 0.1517
v 0.819152 0.052000 -0.573577 0.1517 0.1517 0.1517
v 0.819152 -0.052000 -0.573577 0.1517 0.1517 0.1517
v 0.753620 -0.068000 -0.527690 0.1517 0.1517 0.1517
v 0.566873 0.052000 -0.475663 1.0000 1.0000 1.0000
v 0.597515 0.060000 -0.501374 0.1517 0.1517 0.1517
v 0.624326 0.080000 -0.523872 0.1517 0.1517 0.1517
v 0.689440 0.086000 -0.578509 0.1517 0.1517 0.1517
v 0.739233 0.080000 -0.620290 0.1517 0.1517 0.1517
v 0.766045 0.052000 -0.642788 0.1517 0.1517 0.1517
v 0.766045 -0.052000 -0.642788 0.1517 0.1517 0.1517
v 0.704761 -0.068000 -0.591365 0.1517 0.1517 0.1517
v 0.523259 0.052000 -0.523259 1.0000 1.0000 1.0000
v 0.551543 0.060000 -0.551543 0.1517 0.1517 0.1517
v 0.576292 0.080000 -0.576292 0.1517 0.1517 0.1517
v 0.636396 0.086000 -0.636396 0.1517 0.1517 0.1517
v 0.682358 0.080000 -0.682358 0.1517 0.1517 0.1517
v 0.707107 0.052000 -0.707107 0.1517 0.1517 0.1517
v 0.707107 -0.052000 -0.707107 0.1517 0.1517 0.1517
v 0.650538 -0.068000 -0.650538 0.1517 0.1517 0.1517
v 0.475663 0.052000 -0.566873 1.0000 1.0000 1.0000
v 0.501374 0.060000 -0.597515 0.1517 0.1517 0.1517
v 0.523872 0.080000 -0.624326 0.1517 0.1517 0.1517
v 0.578509 0.086000 -0.689440 0.1517 0.1517 0.1517
v 0.620290 0.080000 -0.739233 0.1517 0.1517 0.1517
v 0.642788 0.052000 -0.766045 0.1517 0.1517 0.1517
v 0.642788 -0.052000 -0.766045 0.1517 0.1517 0.1517
v 0.591365 -0.068000 -0.704761 0.1517 0.1517 0.1517
v 0.424447 0.052000 -0.606173 1.0000 1.0000 1.0000
v 0.447390 0.060000 -0.638939 0.1517 0.1517 0.1517
v 0.467465 0.080000 -0.667609 0.1517 0.1517 0.1517
v 0.516219 0.086000 -0.737237 0.1517 0.1517 0.1517
v 0.553501 0.080000 -0.790482 0.1517 0.1517 0.1517
v 0.573577 0.052000 -0.819152 0.1517 0.1517 0.1517
v 0.573577 -0.052000 -0.819152 0.1517 0.1517 0.1517
v 0.527691 -0.068000 -0.753620 0.1517 0.1517 0.1517
v 0.370000 0.052000 -0.640859 1.0000 1.0000 1.0000
v 0.390000 0.060000 -0.675500 0.1517 0.1517 0.1517
v 0.407500 0.080000 -0.705811 0.1517 0.1517 0.1517
v 0.450000 0.086000 -0.779423 0.1517 0.1517 0.1517
v 0.482500 0.080000 -0.835715 0.1517 0.1517 0.1517
v 0.500000 0.052000 -0.866026 0.1517 0.1517 0.1517
v 0.500000 -0.052000 -0.866026 0.1517 0.1517 0.1517
v 0.460000 -0.068000 -0.796744 0.1517 0.1517 0.1517
v 0.312738 0.052000 -0.670668 1.0000 1.0000 1.0000
v 0.329642 0.060000 -0.706920 0.1517 0.1517 0.1517
v 0.344434 0.080000 -0.738641 0.1517 0.1517 0.1517
v 0.380357 0.086000 -0.815677 0.1517 0.1517 0.1517
v 0.407827 0.080000 -0.874587 0.1517 0.1517 0.1517
v 0.422618 0.052000 -0.906308 0.1517 0.1517 0.1517
v 0.422618 -0.052000 -0.906308 0.1517 0.1517 0.1517
v 0.388809 -0.068000 -0.833803 0.1517 0.1517 0.1517
v 0.253095 0.052000 -0.695373 1.0000 1.0000 1.0000
v 0.266776 0.060000 -0.732960 0.1517 0.1517 0.1517
v 0.278747 0.080000 -0.765850 0.1517 0.1517 0.1517
v 0.307818 0.086000 -0.845724 0.1517 0.1517 0.1517
v 0.330049 0.080000 -0.906803 0.1517 0.1517 0.1517
v 0.342020 0.052000 -0.939693 0.1517 0.1517 0.1517
v 0.342020 -0.052000 -0.939693 0.1517 0.1517 0.1517
v 0.314659 -0.068000 -0.864517 0.1517 0.1517 0.1517
v 0.191526 0.052000 -0.714785 1.0000 1.0000 1.0000
v 0.201879 0.060000 -0.753422 0.1517 0.1517 0.1517
v 0.210938 0.080000 -0.787230 0.1517 0.1517 0.1517
v 0.232937 0.086000 -0.869334 0.1517 0.1517 0.1517
v 0.249761 0.080000 -0.932118 0.1517 0.1517 0.1517
v 0.258819 0.052000 -0.965926 0.1517 0.1517 0.1517
v 0.258819 -0.052000 -0.965926 0.1517 0.1517 0.1517
v 0.238114 -0.068000 -0.888652 0.1517 0.1517 0.1517
v 0.128500 0.052000 -0.728758 1.0000 1.0000 1.0000
v 0.135446 0.060000 -0.768150 0.1517 0.1517 0.1517
v 0.141523 0.080000 -0.802619 0.1517 0.1517 0.1517
v 0.156283 0.086000 -0.886327 0.1517 0.1517 0.1517
v 0.167571 0.080000 -0.950339 0.1517 0.1517 0.1517
v 0.173648 0.052000 -0.984808 0.1517 0.1517 0.1517
v 0.173648 -0.052000 -0.984808 0.1517 0.1517 0.1517
v 0.159756 -0.068000 -0.906023 0.1517 0.1517 0.1517
v 0.064495 0.052000 -0.737184 1.0000 1.0000 1.0000
v 0.067982 0.060000 -0.777032 0.1517 0.1517 0.1517
v 0.071032 0.080000 -0.811899 0.1517 0.1517 0.1517
v 0.078440 0.086000 -0.896575 0.1517 0.1517 0.1517
v 0.084105 0.080000 -0.961328 0.1517 0.1517 0.1517
v 0.087156 0.052000 -0.996195 0.1517 0.1517 0.1517
v 0.087156 -0.052000 -0.996195 0.1517 0.1517 0.1517
v 0.080183 -0.068000 -0.916499 0.1517 0.1517 0.1517
v 0.000000 0.052000 -0.740000 1.0000 1.0000 1.0000
v -0.000000 0.060000 -0.780000 0.1517 0.1517 0.1517
v 0.000000 0.080000 -0.815000 0.1517 0.1517 0.1517
v -0.000000 0.086000 -0.900000 0.1517 0.1517 0.1517
v 0.000000 0.080000 -0.965000 0.1517 0.1517 0.1517
v -0.000000 0.052000 -1.000000 0.1517 0.1517 0.1517
v -0.000000 -0.052000 -1.000000 0.1517 0.1517 0.1517
v 0.000000 -0.068000 -0.920000 0.1517 0.1517 0.1517
v -0.064495 0.052000 -0.737184 1.0000 1.0000 1.0000
v -0.067982 0.060000 -0.777032 0.1517 0.1517 0.1517
v -0.071032 0.080000 -0.811899 0.1517 0.1517 0.1517
v -0.078440 0.086000 -0.896575 0.1517 0.1517 0.1517
v -0.084105 0.080000 -0.961328 0.1517 0.1517 0.1517
v -0.087156 0.052000 -0.996195 0.1517 0.1517 0.1517
v -0.087156 -0.052000 -0.996195 0.1517 0.1517 0.1517
v -0.080183 -0.068000 -0.916499 0.1517 0.1517 0.1517
v -0.128500 0.052000 -0.728758 1.0000 1.0000 1.0000
v -0.135446 0.060000 -0.768150 0.1517 0.1517 0.1517
v -0.141523 0.080000 -0.802619 0.1517 0.1517 0.1517
v -0.156284 0.086000 -0.886327 0.1517 0.1517 0.1517
v -0.167570 0.080000 -0.950339 0.1517 0.1517 0.1517
v -0.173648 0.052000 -0.984808 0.1517 0.1517 0.1517
v -0.173648 -0.052000 -0.984808 0.1517 0.1517 0.1517
v -0.159756 -0.068000 -0.906023 0.1517 0.1517 0.1517
v -0.191526 0.052000 -0.714785 1.0000 1.0000 1.0000
v -0.201879 0.060000 -0.753422 0.1517 0.1517 0.1517
v -0.210937 0.080000 -0.787230 0.1517 0.1517 0.1517
v -0.232937 0.086000 -0.869333 0.1517 0.1517 0.1517
v -0.249760 0.080000 -0.932118 0.1517 0.1517 0.1517
v -0.258819 0.052000 -0.965926 0.1517 0.1517 0.1517
v -0.258819 -0.052000 -0.965926 0.1517 0.1517 0.1517
v -0.238113 -0.068000 -0.888652 0.1517 0.1517 0.1517
v -0.253095 0.052000 -0.695373 1.0000 1.0000 1.0000
v -0.266776 0.060000 -0.732960 0.1517 0.1517 0.1517
v -0.278746 0.080000 -0.765850 0.1517 0.1517 0.1517
v -0.307818 0.086000 -0.845724 0.1517 0.1517 0.1517
v -0.330049 0.080000 -0.906803 0.1517 0.1517 0.1517
v -0.342020 0.052000 -0.939693 0.1517 0.1517 0.1517
v -0.342020 -0.052000 -0.939693 0.1517 0.1517 0.1517
v -0.314658 -0.068000 -0.864517 0.1517 0.1517 0.1517
v -0.312738 0.052000 -0.670668 1.0000 1.0000 1.0000
v -0.329642 0.060000 -0.706920 0.1517 0.1517 0.1517
v -0.344434 0.080000 -0.738641 0.1517 0.1517 0.1517
v -0.380357 0.086000 -0.815677 0.1517 0.1517 0.1517
v -0.407827 0.080000 -0.874587 0.1517 0.1517 0.1517
v -0.422618 0.052000 -0.906308 0.1517 0.1517 0.1517
v -0.422618 -0.052000 -0.906308 0.1517 0.1517 0.1517
v -0.388809 -0.068000 -0.833803 0.1517 0.1517 0.1517
v -0.370000 0.052000 -0.640859 1.0000 1.0000 1.0000
v -0.390000 0.060000 -0.675500 0.1517 0.1517 0.1517
v -0.407500 0.080000 -0.705811 0.1517 0.1517 0.1517
v -0.450000 0.086000 -0.779423 0.1517 0.1517 0.1517
v -0.482500 0.080000 -0.835715 0.1517 0.1517 0.1517
v -0.500000 0.052000 -0.866026 0.1517 0.1517 0.1517
v -0.500000 -0.052000 -0.866026 0.1517 0.1517 0.1517
v -0.460000 -0.068000 -0.796744 0.1517 0.1517 0.1517
v -0.424447 0.052000 -0.606173 1.0000 1.0000 1.0000
v -0.447390 0.060000 -0.638939 0.1517 0.1517 0.1517
v -0.467465 0.080000 -0.667609 0.1517 0.1517 0.1517
v -0.516219 0.086000 -0.737237 0.1517 0.1517 0.1517
v -0.553501 0.080000 -0.790482 0.1517 0.1517 0.1517
v -0.573577 0.052000 -0.819152 0.1517 0.1517 0.1517
v -0.573577 -0.052000 -0.819152 0.1517 0.1517 0.1517
v -0.527690 -0.068000 -0.753620 0.1517 0.1517 0.1517
v -0.475663 0.052000 -0.566873 1.0000 1.0000 1.0000
v -0.501374 0.060000 -0.597515 0.1517 0.1517 0.1517
v -0.523872 0.080000 -0.624327 0.1517 0.1517 0.1517
v -0.578509 0.086000 -0.689440 0.1517 0.1517 0.1517
v -0.620290 0.080000 -0.739233 0.1517 0.1517 0.1517
v -0.642788 0.052000 -0.766045 0.1517 0.1517 0.1517
v -0.642788 -0.052000 -0.766045 0.1517 0.1517 0.1517
v -0.591365 -0.068000 -0.704761 0.1517 0.1517 0.1517
v -0.523259 0.052000 -0.523259 1.0000 1.0000 1.0000
v -0.551543 0.060000 -0.551543 0.1517 0.1517 0.1517
v -0.576292 0.080000 -0.576292 0.1517 0.1517 0.1517
v -0.636396 0.086000 -0.636396 0.1517 0.1517 0.1517
v -0.682358 0.080000 -0.682358 0.1517 0.1517 0.1517
v -0.707107 0.052000 -0.707107 0.1517 0.1517 0.1517
v -0.707107 -0.052000 -0.707107 0.1517 0.1517 0.1517
v -0.650538 -0.068000 -0.650539 0.1517 0.1517 0.1517
v -0.566873 0.052000 -0.475663 1.0000 1.0000 1.0000
v -0.597515 0.060000 -0.501374 0.1517 0.1517 0.1517
v -0.624327 0.080000 -0.523872 0.1517 0.1517 0.1517
v -0.689440 0.086000 -0.578509 0.1517 0.1517 0.1517
v -0.739233 0.080000 -0.620290 0.1517 0.1517 0.1517
v -0.766045 0.052000 -0.642788 0.1517 0.1517 0.1517
v -0.766045 -0.052000 -0.642788 0.1517 0.1517 0.1517
v -0.704761 -0.068000 -0.591365 0.1517 0.1517 0.1517
v -0.606173 0.052000 -0.424447 1.0000 1.0000 1.0000
v -0.638939 0.060000 -0.447390 0.1517 0.1517 0.1517
v -0.667609 0.080000 -0.467465 0.1517 0.1517 0.1517
v -0.737237 0.086000 -0.516219 0.1517 0.1517 0.1517
v -0.790482 0.080000 -0.553501 0.1517 0.1517 0.1517
v -0.819152 0.052000 -0.573576 0.1517 0.1517 0.1517
v -0.819152 -0.052000 -0.573576 0.1517 0.1517 0.1517
v -0.753620 -0.068000 -0.527690 0.1517 0.1517 0.1517
v -0.640859 0.052000 -0.370000 1.0000 1.0000 1.0000
v -0.675500 0.060000 -0.390000 0.1517 0.1517 0.1517
v -0.705811 0.080000 -0.407500 0.1517 0.1517 0.1517
v -0.779423 0.086000 -0.450000 0.1517 0.1517 0.1517
v -0.835714 0.080000 -0.482500 0.1517 0.1517 0.1517
v -0.866026 0.052000 -0.500000 0.1517 0.1517 0.1517
v -0.866026 -0.052000 -0.500000 0.1517 0.1517 0.1517
v -0.796744 -0.068000 -0.460000 0.1517 0.1517 0.1517
v -0.670668 0.052000 -0.312738 1.0000 1.0000 1.0000
v -0.706920 0.060000 -0.329642 0.1517 0.1517 0.1517
v -0.738641 0.080000 -0.344434 0.1517 0.1517 0.1517
v -0.815677 0.086000 -0.380357 0.1517 0.1517 0.1517
v -0.874587 0.080000 -0.407827 0.1517 0.1517 0.1517
v -0.906308 0.052000 -0.422618 0.1517 0.1517 0.1517
v -0.906308 -0.052000 -0.422618 0.1517 0.1517 0.1517
v -0.833803 -0.068000 -0.388809 0.1517 0.1517 0.1517
v -0.695373 0.052000 -0.253095 1.0000 1.0000 1.0000
v -0.732960 0.060000 -0.266776 0.1517 0.1517 0.1517
v -0.765850 0.080000 -0.278747 0.1517 0.1517 0.1517
v -0.845724 0.086000 -0.307818 0.1517 0.1517 0.1517
v -0.906803 0.080000 -0.330049 0.1517 0.1517 0.1517
v -0.939693 0.052000 -0.342020 0.1517 0.1517 0.1517
v -0.939693 -0.052000 -0.342020 0.1517 0.1517 0.1517
v -0.864517 -0.068000 -0.314659 0.1517 0.1517 0.1517
v -0.714785 0.052000 -0.191526 1.0000 1.0000 1.0000
v -0.753422 0.060000 -0.201879 0.1517 0.1517 0.1517
v -0.787230 0.080000 -0.210938 0.1517 0.1517 0.1517
v -0.869334 0.086000 -0.232937 0.1517 0.1517 0.1517
v -0.932118 0.080000 -0.249760 0.1517 0.1517 0.1517
v -0.965926 0.052000 -0.258819 0.1517 0.1517 0.1517
v -0.965926 -0.052000 -0.258819 0.1517 0.1517 0.1517
v -0.888652 -0.068000 -0.238114 0.1517 0.1517 0.1517
v -0.728758 0.052000 -0.128500 1.0000 1.0000 1.0000
v -0.768150 0.060000 -0.135446 0.1517 0.1517 0.1517
v -0.802619 0.080000 -0.141524 0.1517 0.1517 0.1517
v -0.886327 0.086000 -0.156283 0.1517 0.1517 0.1517
v -0.950339 0.080000 -0.167571 0.1517 0.1517 0.1517
v -0.984808 0.052000 -0.173648 0.1517 0.1517 0.1517
v -0.984808 -0.052000 -0.173648 0.1517 0.1517 0.1517
v -0.906023 -0.068000 -0.159757 0.1517 0.1517 0.1517
v -0.737184 0.052000 -0.064495 1.0000 1.0000 1.0000
v -0.777032 0.060000 -0.067981 0.1517 0.1517 0.1517
v -0.811899 0.080000 -0.071032 0.1517 0.1517 0.1517
v -0.896576 0.086000 -0.078440 0.1517 0.1517 0.1517
v -0.961328 0.080000 -0.084105 0.1517 0.1517 0.1517
v -0.996195 0.052000 -0.087156 0.1517 0.1517 0.1517
v -0.996195 -0.052000 -0.087156 0.1517 0.1517 0.1517
v -0.916499 -0.068000 -0.080183 0.1517 0.1517 0.1517
v -0.740000 0.052000 -0.000000 1.0000 1.0000 1.0000
v -0.780000 0.060000 0.000000 0.1517 0.1517 0.1517
v -0.815001 0.080000 -0.000000 0.1517 0.1517 0.1517
v -0.900000 0.086000 0.000000 0.1517 0.1517 0.1517
v -0.965000 0.080000 -0.000000 0.1517 0.1517 0.1517
v -1.000000 0.052000 0.000000 0.1517 0.1517 0.1517
v -1.000000 -0.052000 0.000000 0.1517 0.1517 0.1517
v -0.920000 -0.068000 -0.000000 0.1517 0.1517 0.1517
v -0.737185 0.052000 0.064495 1.0000 1.0000 1.0000
v -0.777032 0.060000 0.067982 0.1517 0.1517 0.1517
v -0.811899 0.080000 0.071032 0.1517 0.1517 0.1517
v -0.896576 0.086000 0.078440 0.1517 0.1517 0.1517
v -0.961328 0.080000 0.084105 0.1517 0.1517 0.1517
v -0.996195 0.052000 0.087156 0.1517 0.1517 0.1517
v -0.996195 -0.052000 0.087156 0.1517 0.1517 0.1517
v -0.916499 -0.068000 0.080183 0.1517 0.1517 0.1517
v -0.728758 0.052000 0.128500 1.0000 1.0000 1.0000
v -0.768150 0.060000 0.135446 0.1517 0.1517 0.1517
v -0.802619 0.080000 0.141523 0.1517 0.1517 0.1517
v -0.886327 0.086000 0.156284 0.1517 0.1517 0.1517
v -0.950339 0.080000 0.167571 0.1517 0.1517 0.1517
v -0.984808 0.052000 0.173648 0.1517 0.1517 0.1517
v -0.984808 -0.052000 0.173648 0.1517 0.1517 0.1517
v -0.906023 -0.068000 0.159756 0.1517 0.1517 0.1517
v -0.714786 0.052000 0.191526 1.0000 1.0000 1.0000
v -0.753422 0.060000 0.201879 0.1517 0.1517 0.1517
v -0.787230 0.080000 0.210938 0.1517 0.1517 0.1517
v -0.869333 0.086000 0.232938 0.1517 0.1517 0.1517
v -0.932118 0.080000 0.249760 0.1517 0.1517 0.1517
v -0.965926 0.052000 0.258819 0.1517 0.1517 0.1517
v -0.965926 -0.052000 0.258819 0.1517 0.1517 0.1517
v -0.888652 -0.068000 0.238114 0.1517 0.1517 0.1517
v -0.695373 0.052000 0.253095 1.0000 1.0000 1.0000
v -0.732960 0.060000 0.266776 0.1517 0.1517 0.1517
v -0.765850 0.080000 0.278747 0.1517 0.1517 0.1517
v -0.845724 0.086000 0.307819 0.1517 0.1517 0.1517
v -0.906803 0.080000 0.330049 0.1517 0.1517 0.1517
v -0.939693 0.052000 0.342020 0.1517 0.1517 0.1517
v -0.939693 -0.052000 0.342020 0.1517 0.1517 0.1517
v -0.864517 -0.068000 0.314659 0.1517 0.1517 0.1517
v -0.670668 0.052000 0.312738 1.0000 1.0000 1.0000
v -0.706920 0.060000 0.329642 0.1517 0.1517 0.1517
v -0.738642 0.080000 0.344434 0.1517 0.1517 0.1517
v -0.815677 0.086000 0.380357 0.1517 0.1517 0.1517
v -0.874587 0.080000 0.407826 0.1517 0.1517 0.1517
v -0.906308 0.052000 0.422618 0.1517 0.1517 0.1517
v -0.906308 -0.052000 0.422618 0.1517 0.1517 0.1517
v -0.833803 -0.068000 0.388809 0.1517 0.1517 0.1517
v -0.640859 0.052000 0.370000 1.0000 1.0000 1.0000
v -0.675500 0.060000 0.390000 0.1517 0.1517 0.1517
v -0.705811 0.080000 0.407500 0.1517 0.1517 0.1517
v -0.779423 0.086000 0.450000 0.1517 0.1517 0.1517
v -0.835715 0.080000 0.482500 0.1517 0.1517 0.1517
v -0.866026 0.052000 0.500000 0.1517 0.1517 0.1517
v -0.866026 -0.052000 0.500000 0.1517 0.1517 0.1517
v -0.796744 -0.068000 0.460000 0.1517 0.1517 0.1517
v -0.606173 0.052000 0.424447 1.0000 1.0000 1.0000
v -0.638939 0.060000 0.447390 0.1517 0.1517 0.1517
v -0.667610 0.080000 0.467465 0.1517 0.1517 0.1517
v -0.737237 0.086000 0.516219 0.1517 0.1517 0.1517
v -0.790482 0.080000 0.553501 0.1517 0.1517 0.1517
v -0.819152 0.052000 0.573577 0.1517 0.1517 0.1517
v -0.819152 -0.052000 0.573577 0.1517 0.1517 0.1517
v -0.753620 -0.068000 0.527690 0.1517 0.1517 0.1517
v -0.566874 0.052000 0.475663 1.0000 1.0000 1.0000
v -0.597515 0.060000 0.501374 0.1517 0.1517 0.1517
v -0.624327 0.080000 0.523872 0.1517 0.1517 0.1517
v -0.689440 0.086000 0.578509 0.1517 0.1517 0.1517
v -0.739233 0.080000 0.620290 0.1517 0.1517 0.1517
v -0.766045 0.052000 0.642788 0.1517 0.1517 0.1517
v -0.766045 -0.052000 0.642788 0.1517 0.1517 0.1517
v -0.704761 -0.068000 0.591365 0.1517 0.1517 0.1517
v -0.523260 0.052000 0.523259 1.0000 1.0000 1.0000
v -0.551543 0.060000 0.551543 0.1517 0.1517 0.1517
v -0.576293 0.080000 0.576292 0.1517 0.1517 0.1517
v -0.636396 0.086000 0.636396 0.1517 0.1517 0.1517
v -0.682358 0.080000 0.682358 0.1517 0.1517 0.1517
v -0.707107 0.052000 0.707107 0.1517 0.1517 0.1517
v -0.707107 -0.052000 0.707107 0.1517 0.1517 0.1517
v -0.650538 -0.068000 0.650538 0.1517 0.1517 0.1517
v -0.475663 0.052000 0.566873 1.0000 1.0000 1.0000
v -0.501374 0.060000 0.597515 0.1517 0.1517 0.1517
v -0.523872 0.080000 0.624327 0.1517 0.1517 0.1517
v -0.578509 0.086000 0.689440 0.1517 0.1517 0.1517
v -0.620290 0.080000 0.739233 0.1517 0.1517 0.1517
v -0.642788 0.052000 0.766045 0.1517 0.1517 0.1517
v -0.642788 -0.052000 0.766045 0.1517 0.1517 0.1517
v -0.591365 -0.068000 0.704761 0.1517 0.1517 0.1517
v -0.424447 0.052000 0.606173 1.0000 1.0000 1.0000
v -0.447390 0.060000 0.638939 0.1517 0.1517 0.1517
v -0.467465 0.080000 0.667609 0.1517 0.1517 0.1517
v -0.516219 0.086000 0.737237 0.1517 0.1517 0.1517
v -0.553501 0.080000 0.790482 0.1517 0.1517 0.1517
v -0.573577 0.052000 0.819152 0.1517 0.1517 0.1517
v -0.573577 -0.052000 0.819152 0.1517 0.1517 0.1517
v -0.527691 -0.068000 0.753620 0.1517 0.1517 0.1517
v -0.370000 0.052000 0.640859 1.0000 1.0000 1.0000
v -0.390000 0.060000 0.675500 0.1517 0.1517 0.1517
v -0.407501 0.080000 0.705811 0.1517 0.1517 0.1517
v -0.450000 0.086000 0.779423 0.1517 0.1517 0.1517
v -0.482500 0.080000 0.835715 0.1517 0.1517 0.1517
v -0.500000 0.052000 0.866026 0.1517 0.1517 0.1517
v -0.500000 -0.052000 0.866026 0.1517 0.1517 0.1517
v -0.460000 -0.068000 0.796744 0.1517 0.1517 0.1517
v -0.312738 0.052000 0.670668 1.0000 1.0000 1.0000
v -0.329642 0.060000 0.706920 0.1517 0.1517 0.1517
v -0.344434 0.080000 0.738641 0.1517 0.1517 0.1517
v -0.380357 0.086000 0.815677 0.1517 0.1517 0.1517
v -0.407827 0.080000 0.874587 0.1517 0.1517 0.1517
v -0.422619 0.052000 0.906308 0.1517 0.1517 0.1517
v -0.422619 -0.052000 0.906308 0.1517 0.1517 0.1517
v -0.388809 -0.068000 0.833803 0.1517 0.1517 0.1517
v -0.253095 0.052000 0.695373 1.0000 1.0000 1.0000
v -0.266776 0.060000 0.732960 0.1517 0.1517 0.1517
v -0.278747 0.080000 0.765850 0.1517 0.1517 0.1517
v -0.307818 0.086000 0.845724 0.1517 0.1517 0.1517
v -0.330050 0.080000 0.906803 0.1517 0.1517 0.1517
v -0.342020 0.052000 0.939693 0.1517 0.1517 0.1517
v -0.342020 -0.052000 0.939693 0.1517 0.1517 0.1517
v -0.314659 -0.068000 0.864517 0.1517 0.1517 0.1517
v -0.191526 0.052000 0.714786 1.0000 1.0000 1.0000
v -0.201879 0.060000 0.753422 0.1517 0.1517 0.1517
v -0.210938 0.080000 0.787230 0.1517 0.1517 0.1517
v -0.232937 0.086000 0.869334 0.1517 0.1517 0.1517
v -0.249761 0.080000 0.932119 0.1517 0.1517 0.1517
v -0.258819 0.052000 0.965926 0.1517 0.1517 0.1517
v -0.258819 -0.052000 0.965926 0.1517 0.1517 0.1517
v -0.238114 -0.068000 0.888652 0.1517 0.1517 0.1517
v -0.128500 0.052000 0.728758 1.0000 1.0000 1.0000
v -0.135446 0.060000 0.768150 0.1517 0.1517 0.1517
v -0.141524 0.080000 0.802619 0.1517 0.1517 0.1517
v -0.156283 0.086000 0.886327 0.1517 0.1517 0.1517
v -0.167571 0.080000 0.950340 0.1517 0.1517 0.1517
v -0.173648 0.052000 0.984808 0.1517 0.1517 0.1517
v -0.173648 -0.052000 0.984808 0.1517 0.1517 0.1517
v -0.159757 -0.068000 0.906023 0.1517 0.1517 0.1517
v -0.064496 0.052000 0.737185 1.0000 1.0000 1.0000
v -0.067982 0.060000 0.777032 0.1517 0.1517 0.1517
v -0.071032 0.080000 0.811899 0.1517 0.1517 0.1517
v -0.078440 0.086000 0.896576 0.1517 0.1517 0.1517
v -0.084105 0.080000 0.961328 0.1517 0.1517 0.1517
v -0.087156 0.052000 0.996195 0.1517 0.1517 0.1517
v -0.087156 -0.052000 0.996195 0.1517 0.1517 0.1517
v -0.080184 -0.068000 0.916499 0.1517 0.1517 0.1517
v -0.000000 0.052000 0.740001 1.0000 1.0000 1.0000
v -0.000000 0.060000 0.780000 0.1517 0.1517 0.1517
v -0.000000 0.080000 0.815001 0.1517 0.1517 0.1517
v -0.000000 0.086000 0.900001 0.1517 0.1517 0.1517
v -0.000000 0.080000 0.965000 0.1517 0.1517 0.1517
v -0.000000 0.052000 1.000000 0.1517 0.1517 0.1517
v -0.000000 -0.052000 1.000000 0.1517 0.1517 0.1517
v -0.000000 -0.068000 0.920000 0.1517 0.1517 0.1517
v 0.064495 0.052000 0.737185 1.0000 1.0000 1.0000
v 0.067981 0.060000 0.777032 0.1517 0.1517 0.1517
v 0.071032 0.080000 0.811899 0.1517 0.1517 0.1517
v 0.078440 0.086000 0.896576 0.1517 0.1517 0.1517
v 0.084105 0.080000 0.961328 0.1517 0.1517 0.1517
v 0.087156 0.052000 0.996195 0.1517 0.1517 0.1517
v 0.087156 -0.052000 0.996195 0.1517 0.1517 0.1517
v 0.080183 -0.068000 0.916499 0.1517 0.1517 0.1517
v 0.128500 0.052000 0.728759 1.0000 1.0000 1.0000
v 0.135446 0.060000 0.768150 0.1517 0.1517 0.1517
v 0.141523 0.080000 0.802619 0.1517 0.1517 0.1517
v 0.156284 0.086000 0.886327 0.1517 0.1517 0.1517
v 0.167571 0.080000 0.950340 0.1517 0.1517 0.1517
v 0.173649 0.052000 0.984808 0.1517 0.1517 0.1517
v 0.173649 -0.052000 0.984808 0.1517 0.1517 0.1517
v 0.159757 -0.068000 0.906023 0.1517 0.1517 0.1517
v 0.191526 0.052000 0.714786 1.0000 1.0000 1.0000
v 0.201879 0.060000 0.753422 0.1517 0.1517 0.1517
v 0.210938 0.080000 0.787230 0.1517 0.1517 0.1517
v 0.232938 0.086000 0.869334 0.1517 0.1517 0.1517
v 0.249761 0.080000 0.932119 0.1517 0.1517 0.1517
v 0.258819 0.052000 0.965926 0.1517 0.1517 0.1517
v 0.258819 -0.052000 0.965926 0.1517 0.1517 0.1517
v 0.238114 -0.068000 0.888652 0.1517 0.1517 0.1517
v 0.253095 0.052000 0.695373 1.0000 1.0000 1.0000
v 0.266776 0.060000 0.732961 0.1517 0.1517 0.1517
v 0.278747 0.080000 0.765850 0.1517 0.1517 0.1517
v 0.307819 0.086000 0.845724 0.1517 0.1517 0.1517
v 0.330050 0.080000 0.906803 0.1517 0.1517 0.1517
v 0.342021 0.052000 0.939693 0.1517 0.1517 0.1517
v 0.342021 -0.052000 0.939693 0.1517 0.1517 0.1517
v 0.314659 -0.068000 0.864518 0.1517 0.1517 0.1517
v 0.312738 0.052000 0.670669 1.0000 1.0000 1.0000
v 0.329642 0.060000 0.706920 0.1517 0.1517 0.1517
v 0.344434 0.080000 0.738642 0.1517 0.1517 0.1517
v 0.380357 0.086000 0.815678 0.1517 0.1517 0.1517
v 0.407826 0.080000 0.874587 0.1517 0.1517 0.1517
v 0.422618 0.052000 0.906308 0.1517 0.1517 0.1517
v 0.422618 -0.052000 0.906308 0.1517 0.1517 0.1517
v 0.388809 -0.068000 0.833804 0.1517 0.1517 0.1517
v 0.370000 0.052000 0.640860 1.0000 1.0000 1.0000
v 0.390000 0.060000 0.675500 0.1517 0.1517 0.1517
v 0.407500 0.080000 0.705812 0.1517 0.1517 0.1517
v 0.450000 0.086000 0.779423 0.1517 0.1517 0.1517
v 0.482500 0.080000 0.835715 0.1517 0.1517 0.1517
v 0.500000 0.052000 0.866026 0.1517 0.1517 0.1517
v 0.500000 -0.052000 0.866026 0.1517 0.1517 0.1517
v 0.460000 -0.068000 0.796744 0.1517 0.1517 0.1517
v 0.424447 0.052000 0.606174 1.0000 1.0000 1.0000
v 0.447390 0.060000 0.638939 0.1517 0.1517 0.1517
v 0.467465 0.080000 0.667610 0.1517 0.1517 0.1517
v 0.516219 0.086000 0.737237 0.1517 0.1517 0.1517
v 0.553501 0.080000 0.790482 0.1517 0.1517 0.1517
v 0.573577 0.052000 0.819153 0.1517 0.1517 0.1517
v 0.573577 -0.052000 0.819153 0.1517 0.1517 0.1517
v 0.527690 -0.068000 0.753620 0.1517 0.1517 0.1517
v 0.475663 0.052000 0.566874 1.0000 1.0000 1.0000
v 0.501374 0.060000 0.597515 0.1517 0.1517 0.1517
v 0.523872 0.080000 0.624327 0.1517 0.1517 0.1517
v 0.578509 0.086000 0.689441 0.1517 0.1517 0.1517
v 0.620290 0.080000 0.739233 0.1517 0.1517 0.1517
v 0.642788 0.052000 0.766045 0.1517 0.1517 0.1517
v 0.642788 -0.052000 0.766045 0.1517 0.1517 0.1517
v 0.591365 -0.068000 0.704761 0.1517 0.1517 0.1517
v 0.523260 0.052000 0.523260 1.0000 1.0000 1.0000
v 0.551544 0.060000 0.551543 0.1517 0.1517 0.1517
v 0.576293 0.080000 0.576293 0.1517 0.1517 0.1517
v 0.636397 0.086000 0.636396 0.1517 0.1517 0.1517
v 0.682358 0.080000 0.682358 0.1517 0.1517 0.1517
v 0.707107 0.052000 0.707107 0.1517 0.1517 0.1517
v 0.707107 -0.052000 0.707107 0.1517 0.1517 0.1517
v 0.650539 -0.068000 0.650538 0.1517 0.1517 0.1517
v 0.566873 0.052000 0.475664 1.0000 1.0000 1.0000
v 0.597515 0.060000 0.501374 0.1517 0.1517 0.1517
v 0.624327 0.080000 0.523872 0.1517 0.1517 0.1517
v 0.689441 0.086000 0.578509 0.1517 0.1517 0.1517
v 0.739233 0.080000 0.620290 0.1517 0.1517 0.1517
v 0.766045 0.052000 0.642788 0.1517 0.1517 0.1517
v 0.766045 -0.052000 0.642788 0.1517 0.1517 0.1517
v 0.704761 -0.068000 0.591365 0.1517 0.1517 0.1517
v 0.606173 0.052000 0.424447 1.0000 1.0000 1.0000
v 0.638939 0.060000 0.447390 0.1517 0.1517 0.1517
v 0.667610 0.080000 0.467465 0.1517 0.1517 0.1517
v 0.737238 0.086000 0.516219 0.1517 0.1517 0.1517
v 0.790482 0.080000 0.553501 0.1517 0.1517 0.1517
v 0.819153 0.052000 0.573577 0.1517 0.1517 0.1517
v 0.819153 -0.052000 0.573577 0.1517 0.1517 0.1517
v 0.753620 -0.068000 0.527690 0.1517 0.1517 0.1517
v 0.640860 0.052000 0.370001 1.0000 1.0000 1.0000
v 0.675500 0.060000 0.390000 0.1517 0.1517 0.1517
v 0.705811 0.080000 0.407501 0.1517 0.1517 0.1517
v 0.779424 0.086000 0.450000 0.1517 0.1517 0.1517
v 0.835715 0.080000 0.482500 0.1517 0.1517 0.1517
v 0.866026 0.052000 0.500000 0.1517 0.1517 0.1517
v 0.866026 -0.052000 0.500000 0.1517 0.1517 0.1517
v 0.796744 -0.068000 0.460000 0.1517 0.1517 0.1517
v 0.670669 0.052000 0.312738 1.0000 1.0000 1.0000
v 0.706921 0.060000 0.329642 0.1517 0.1517 0.1517
v 0.738642 0.080000 0.344434 0.1517 0.1517 0.1517
v 0.815678 0.086000 0.380357 0.1517 0.1517 0.1517
v 0.874587 0.080000 0.407827 0.1517 0.1517 0.1517
v 0.906308 0.052000 0.422618 0.1517 0.1517 0.1517
v 0.906308 -0.052000 0.422618 0.1517 0.1517 0.1517
v 0.833803 -0.068000 0.388809 0.1517 0.1517 0.1517
v 0.695373 0.052000 0.253096 1.0000 1.0000 1.0000
v 0.732961 0.060000 0.266776 0.1517 0.1517 0.1517
v 0.765850 0.080000 0.278747 0.1517 0.1517 0.1517
v 0.845724 0.086000 0.307819 0.1517 0.1517 0.1517
v 0.906803 0.080000 0.330050 0.1517 0.1517 0.1517
v 0.939693 0.052000 0.342021 0.1517 0.1517 0.1517
v 0.939693 -0.052000 0.342021 0.1517 0.1517 0.1517
v 0.864517 -0.068000 0.314659 0.1517 0.1517 0.1517
v 0.714786 0.052000 0.191527 1.0000 1.0000 1.0000
v 0.753423 0.060000 0.201879 0.1517 0.1517 0.1517
v 0.787230 0.080000 0.210938 0.1517 0.1517 0.1517
v 0.869334 0.086000 0.232937 0.1517 0.1517 0.1517
v 0.932119 0.080000 0.249760 0.1517 0.1517 0.1517
v 0.965926 0.052000 0.258819 0.1517 0.1517 0.1517
v 0.965926 -0.052000 0.258819 0.1517 0.1517 0.1517
v 0.888652 -0.068000 0.238114 0.1517 0.1517 0.1517
v 0.728759 0.052000 0.128500 1.0000 1.0000 1.0000
v 0.768151 0.060000 0.135446 0.1517 0.1517 0.1517
v 0.802619 0.080000 0.141524 0.1517 0.1517 0.1517
v 0.886328 0.086000 0.156283 0.1517 0.1517 0.1517
v 0.950340 0.080000 0.167571 0.1517 0.1517 0.1517
v 0.984808 0.052000 0.173648 0.1517 0.1517 0.1517
v 0.984808 -0.052000 0.173648 0.1517 0.1517 0.1517
v 0.906023 -0.068000 0.159756 0.1517 0.1517 0.1517
v 0.737185 0.052000 0.064496 1.0000 1.0000 1.0000
v 0.777032 0.060000 0.067982 0.1517 0.1517 0.1517
v 0.811900 0.080000 0.071032 0.1517 0.1517 0.1517
v 0.896576 0.086000 0.078440 0.1517 0.1517 0.1517
v 0.961328 0.080000 0.084105 0.1517 0.1517 0.1517
v 0.996195 0.052000 0.087156 0.1517 0.1517 0.1517
v 0.996195 -0.052000 0.087156 0.1517 0.1517 0.1517
v 0.916499 -0.068000 0.080183 0.1517 0.1517 0.1517
v 0.740001 0.052000 0.000000 1.0000 1.0000 1.0000
v 0.965000 0.080000 0.000000 0.1517 0.1517 0.1517
v 1.000001 0.052000 0.000000 0.1517 0.1517 0.1517
vn -0.0000 1.0000 -0.0000
vn -0.3545 0.9350 -0.0000
vn -0.2849 0.9586 -0.0000
vn 0.0130 0.9999 -0.0000
vn 0.7802 -0.6255 -0.0000
vn 0.1012 -0.9949 -0.0000
vn -0.0000 -1.0000 -0.0000
vn -0.1009 0.9949 0.0088
vn -0.3532 0.9350 0.0309
vn -0.2838 0.9586 0.0248
vn 0.0130 0.9999 -0.0011
vn 0.3794 0.9246 -0.0332
vn 0.9001 0.4286 -0.0787
vn 0.7773 -0.6255 -0.0680
vn 0.1009 -0.9949 -0.0088
vn -0.0997 0.9949 0.0176
vn -0.3492 0.9350 0.0616
vn -0.2806 0.9586 0.0495
vn 0.0128 0.9999 -0.0023
vn 0.3751 0.9246 -0.0661
vn 0.8898 0.4286 -0.1569
vn 0.7684 -0.6255 -0.1355
vn 0.0997 -0.9949 -0.0176
vn -0.0978 0.9949 0.0262
vn -0.3425 0.9350 0.0918
vn -0.2752 0.9586 0.0737
vn 0.0126 0.9999 -0.0034
vn 0.3679 0.9246 -0.0986
vn 0.8727 0.4286 -0.2338
vn 0.7536 -0.6255 -0.2019
vn 0.0978 -0.9949 -0.0262
vn -0.0951 0.9949 0.0346
vn -0.3332 0.9350 0.1213
vn -0.2677 0.9586 0.0974
vn 0.0123 0.9999 -0.0045
vn 0.3579 0.9246 -0.1303
vn 0.8490 0.4286 -0.3090
vn 0.7332 -0.6255 -0.2669
vn 0.0951 -0.9949 -0.0346
vn -0.0918 0.9949 0.0428
vn -0.3213 0.9350 0.1498
vn -0.2582 0.9586 0.1204
vn 0.0118 0.9999 -0.0055
vn 0.3452 0.9246 -0.1610
vn 0.8189 0.4286 -0.3818
vn 0.7071 -0.6255 -0.3297
vn 0.0918 -0.9949 -0.0428
vn -0.0877 0.9949 0.0506
vn -0.3070 0.9350 0.1773
vn -0.2467 0.9586 0.1424
vn 0.0113 0.9999 -0.0065
vn 0.3299 0.9246 -0.1904
vn 0.7825 0.4286 -0.4518
vn 0.6757 -0.6255 -0.3901
vn 0.0877 -0.9949 -0.0506
vn -0.0829 0.9949 0.0581
vn -0.2904 0.9350 0.2034
vn -0.2334 0.9586 0.1634
vn 0.0107 0.9999 -0.0075
vn 0.3120 0.9246 -0.2185
vn 0.7401 0.4286 -0.5182
vn 0.6391 -0.6255 -0.4475
vn 0.0829 -0.9949 -0.0581
vn -0.0776 0.9949 0.0651
vn -0.2716 0.9350 0.2279
vn -0.2182 0.9586 0.1831
vn 0.0100 0.9999 -0.0084
vn 0.2918 0.9246 -0.2448
vn 0.6921 0.4286 -0.5808
vn 0.5977 -0.6255 -0.5015
vn 0.0776 -0.9949 -0.0651
vn -0.0716 0.9949 0.0716
vn -0.2507 0.9350 0.2507
vn -0.2014 0.9586 0.2014
vn 0.0092 0.9999 -0.0092
vn 0.2693 0.9246 -0.2693
vn 0.6389 0.4286 -0.6389
vn 0.5517 -0.6255 -0.5517
vn 0.0716 -0.9949 -0.0716
vn -0.0651 0.9949 0.0776
vn -0.2279 0.9350 0.2716
vn -0.1831 0.9586 0.2182
vn 0.0084 0.9999 -0.0100
vn 0.2448 0.9246 -0.2918
vn 0.5808 0.4286 -0.6921
vn 0.5015 -0.6255 -0.5977
vn 0.0651 -0.9949 -0.0776
vn -0.0581 0.9949 0.0829
vn -0.2034 0.9350 0.2904
vn -0.1634 0.9586 0.2334
vn 0.0075 0.9999 -0.0107
vn 0.2185 0.9246 -0.3120
vn 0.5182 0.4286 -0.7401
vn 0.4475 -0.6255 -0.6391
vn 0.0581 -0.9949 -0.0829
vn -0.0506 0.9949 0.0877
vn -0.1773 0.9350 0.3070
vn -0.1424 0.9586 0.2467
vn 0.0065 0.9999 -0.0113
vn 0.1904 0.9246 -0.3299
vn 0.4518 0.4286 -0.7825
vn 0.3901 -0.6255 -0.6757
vn 0.0506 -0.9949 -0.0877
vn -0.0428 0.9949 0.0918
vn -0.1498 0.9350 0.3213
vn -0.1204 0.9586 0.2582
vn 0.0055 0.9999 -0.0118
vn 0.1610 0.9246 -0.3452
vn 0.3818 0.4286 -0.8189
vn 0.3297 -0.6255 -0.7071
vn 0.0428 -0.9949 -0.0918
vn -0.0346 0.9949 0.0951
vn -0.1213 0.9350 0.3332
vn -0.0974 0.9586 0.2677
vn 0.0045 0.9999 -0.0123
vn 0.1303 0.9246 -0.3579
vn 0.3090 0.4286 -0.8490
vn 0.2669 -0.6255 -0.7332
vn 0.0346 -0.9949 -0.0951
vn -0.0262 0.9949 0.0978
vn -0.0918 0.9350 0.3425
vn -0.0737 0.9586 0.2752
vn 0.0034 0.9999 -0.0126
vn 0.0986 0.9246 -0.3679
vn 0.2338 0.4286 -0.8727
vn 0.2019 -0.6255 -0.7536
vn 0.0262 -0.9949 -0.0978
vn -0.0176 0.9949 0.0997
vn -0.0616 0.9350 0.3492
vn -0.0495 0.9586 0.2805
vn 0.0023 0.9999 -0.0128
vn 0.0661 0.9246 -0.3751
vn 0.1569 0.4286 -0.8898
vn 0.1355 -0.6255 -0.7684
vn 0.0176 -0.9949 -0.0997
vn -0.0088 0.9949 0.1009
vn -0.0309 0.9350 0.3532
vn -0.0248 0.9586 0.2838
vn 0.0011 0.9999 -0.0130
vn 0.0332 0.9246 -0.3794
vn 0.0787 0.4286 -0.9001
vn 0.0680 -0.6255 -0.7773
vn 0.0088 -0.9949 -0.1009
vn -0.0000 0.9949 0.1012
vn -0.0000 0.9350 0.3545
vn -0.0000 0.9586 0.2849
vn -0.0000 0.9999 -0.0130
vn -0.0000 0.9246 -0.3809
vn -0.0000 0.4286 -0.9035
vn -0.0000 -0.6255 -0.7802
vn -0.0000 -0.9949 -0.1012
vn 0.0088 0.9949 0.1009
vn 0.0309 0.9350 0.3532
vn 0.0248 0.9586 0.2838
vn -0.0011 0.9999 -0.0130
vn -0.0332 0.9246 -0.3794
vn -0.0787 0.4286 -0.9001
vn -0.0680 -0.6255 -0.7773
vn -0.0088 -0.9949 -0.1009
vn 0.0176 0.9949 0.0997
vn 0.0616 0.9350 0.3492
vn 0.0495 0.9586 0.2805
vn -0.0023 0.9999 -0.0128
vn -0.0661 0.9246 -0.3751
vn -0.1569 0.4286 -0.8898
vn -0.1355 -0.6255 -0.7684
vn -0.0176 -0.9949 -0.0997
vn 0.0262 0.9949 0.0978
vn 0.0918 0.9350 0.3425
vn 0.0737 0.9586 0.2752
vn -0.0034 0.9999 -0.0126
vn -0.0986 0.9246 -0.3679
vn -0.2338 0.4286 -0.8727
vn -0.2019 -0.6255 -0.7536
vn -0.0262 -0.9949 -0.0978
vn 0.0346 0.9949 0.0951
vn 0.1213 0.9350 0.3332
vn 0.0974 0.9586 0.2677
vn -0.0045 0.9999 -0.0123
vn -0.1303 0.9246 -0.3579
vn -0.3090 0.4286 -0.8490
vn -0.2669 -0.6255 -0.7332
vn -0.0346 -0.9949 -0.0951
vn 0.0428 0.9949 0.0918
vn 0.1498 0.9350 0.3213
vn 0.1204 0.9586 0.2582
vn -0.0055 0.9999 -0.0118
vn -0.1610 0.9246 -0.3452
vn -0.3818 0.4286 -0.8189
vn -0.3297 -0.6255 -0.7071
vn -0.0428 -0.9949 -0.0918
vn 0.0506 0.9949 0.0877
vn 0.1773 0.9350 0.3070
vn 0.1424 0.9586 0.2467
vn -0.0065 0.9999 -0.0113
vn -0.1904 0.9246 -0.3299
vn -0.4518 0.4286 -0.7825
vn -0.3901 -0.6255 -0.6757
vn -0.0506 -0.9949 -0.0877
vn 0.0581 0.9949 0.0829
vn 0.2034 0.9350 0.2904
vn 0.1634 0.9586 0.2334
vn -0.0075 0.9999 -0.0107
vn -0.2185 0.9246 -0.3120
vn -0.5182 0.4286 -0.7401
vn -0.4475 -0.6255 -0.6391
vn -0.0581 -0.9949 -0.0829
vn 0.0651 0.9949 0.0776
vn 0.2279 0.9350 0.2716
vn 0.1831 0.9586 0.2182
vn -0.0084 0.9999 -0.0100
vn -0.2448 0.9246 -0.2918
vn -0.5808 0.4286 -0.6921
vn -0.5015 -0.6255 -0.5977
vn -0.0651 -0.9949 -0.0776
vn 0.0716 0.9949 0.0716
vn 0.2507 0.9350 0.2507
vn 0.2014 0.9586 0.2014
vn -0.0092 0.9999 -0.0092
vn -0.2693 0.9246 -0.2693
vn -0.6389 0.4286 -0.6389
vn -0.5517 -0.6255 -0.5517
vn -0.0716 -0.9949 -0.0716
vn 0.0776 0.9949 0.0651
vn 0.2716 0.9350 0.2279
vn 0.2182 0.9586 0.1831
vn -0.0100 0.9999 -0.0084
vn -0.2918 0.9246 -0.2448
vn -0.6921 0.4286 -0.5808
vn -0.5977 -0.6255 -0.5015
vn -0.0776 -0.9949 -0.0651
vn 0.0829 0.9949 0.0581
vn 0.2904 0.9350 0.2034
vn 0.2334 0.9586 0.1634
vn -0.0107 0.9999 -0.0075
vn -0.3120 0.9246 -0.2185
vn -0.7401 0.4286 -0.5182
vn -0.6391 -0.6255 -0.4475
vn -0.0829 -0.9949 -0.0581
vn 0.0877 0.9949 0.0506
vn 0.3070 0.9350 0.1773
vn 0.2467 0.9586 0.1424
vn -0.0113 0.9999 -0.0065
vn -0.3299 0.9246 -0.1904
vn -0.7825 0.4286 -0.4518
vn -0.6757 -0.6255 -0.3901
vn -0.0877 -0.9949 -0.0506
vn 0.0918 0.9949 0.0428
vn 0.3213 0.9350 0.1498
vn 0.2582 0.9586 0.1204
vn -0.0118 0.9999 -0.0055
vn -0.3452 0.9246 -0.1610
vn -0.8189 0.4286 -0.3818
vn -0.7071 -0.6255 -0.3297
vn -0.0918 -0.9949 -0.0428
vn 0.0951 0.9949 0.0346
vn 0.3332 0.9350 0.1213
vn 0.2677 0.9586 0.0974
vn -0.0123 0.9999 -0.0045
vn -0.3579 0.9246 -0.1303
vn -0.8490 0.4286 -0.3090
vn -0.7332 -0.6255 -0.2669
vn -0.0951 -0.9949 -0.0346
vn 0.0978 0.9949 0.0262
vn 0.3425 0.9350 0.0918
vn 0.2752 0.9586 0.0737
vn -0.0126 0.9999 -0.0034
vn -0.3679 0.9246 -0.0986
vn -0.8727 0.4286 -0.2338
vn -0.7536 -0.6255 -0.2019
vn -0.0978 -0.9949 -0.0262
vn 0.0997 0.9949 0.0176
vn 0.3492 0.9350 0.0616
vn 0.2805 0.9586 0.0495
vn -0.0128 0.9999 -0.0023
vn -0.3751 0.9246 -0.0661
vn -0.8898 0.4286 -0.1569
vn -0.7684 -0.6255 -0.1355
vn -0.0997 -0.9949 -0.0176
vn 0.1009 0.9949 0.0088
vn 0.3532 0.9350 0.0309
vn 0.2838 0.9586 0.0248
vn -0.0130 0.9999 -0.0011
vn -0.3794 0.9246 -0.0332
vn -0.9001 0.4286 -0.0787
vn -0.7773 -0.6255 -0.0680
vn -0.1009 -0.9949 -0.0088
vn 0.1012 0.9949 -0.0000
vn 0.3545 0.9350 -0.0000
vn 0.2849 0.9586 -0.0000
vn -0.0130 0.9999 -0.0000
vn -0.3809 0.9246 -0.0000
vn -0.9035 0.4286 -0.0000
vn -0.7802 -0.6255 -0.0000
vn -0.1012 -0.9949 -0.0000
vn 0.1009 0.9949 -0.0088
vn 0.3532 0.9350 -0.0309
vn 0.2838 0.9586 -0.0248
vn -0.0130 0.9999 0.0011
vn -0.3794 0.9246 0.0332
vn -0.9001 0.4286 0.0787
vn -0.7773 -0.6255 0.0680
vn -0.1009 -0.9949 0.0088
vn 0.0997 0.9949 -0.0176
vn 0.3492 0.9350 -0.0616
vn 0.2805 0.9586 -0.0495
vn -0.0128 0.9999 0.0023
vn -0.3751 0.9246 0.0661
vn -0.8898 0.4286 0.1569
vn -0.7684 -0.6255 0.1355
vn -0.0997 -0.9949 0.0176
vn 0.0978 0.9949 -0.0262
vn 0.3425 0.9350 -0.0918
vn 0.2752 0.9586 -0.0737
vn -0.0126 0.9999 0.0034
vn -0.3679 0.9246 0.0986
vn -0.8727 0.4286 0.2338
vn -0.7536 -0.6255 0.2019
vn -0.0978 -0.9949 0.0262
vn 0.0951 0.9949 -0.0346
vn 0.3332 0.9350 -0.1213
vn 0.2677 0.9586 -0.0974
vn -0.0123 0.9999 0.0045
vn -0.3579 0.9246 0.1303
vn -0.8490 0.4286 0.3090
vn -0.7332 -0.6255 0.2669
vn -0.0951 -0.9949 0.0346
vn 0.0918 0.9949 -0.0428
vn 0.3213 0.9350 -0.1498
vn 0.2582 0.9586 -0.1204
vn -0.0118 0.9999 0.0055
vn -0.3452 0.9246 0.1610
vn -0.8189 0.4286 0.3818
vn -0.7071 -0.6255 0.3297
vn -0.0918 -0.9949 0.0428
vn 0.0877 0.9949 -0.0506
vn 0.3070 0.9350 -0.1773
vn 0.2467 0.9586 -0.1424
vn -0.0113 0.9999 0.0065
vn -0.3299 0.9246 0.1904
vn -0.7825 0.4286 0.4518
vn -0.6757 -0.6255 0.3901
vn -0.0877 -0.9949 0.0506
vn 0.0829 0.9949 -0.0581
vn 0.2904 0.9350 -0.2034
vn 0.2334 0.9586 -0.1634
vn -0.0107 0.9999 0.0075
vn -0.3120 0.9246 0.2185
vn -0.7401 0.4286 0.5182
vn -0.6391 -0.6255 0.4475
vn -0.0829 -0.9949 0.0581
vn 0.0776 0.9949 -0.0651
vn 0.2716 0.9350 -0.2279
vn 0.2182 0.9586 -0.1831
vn -0.0100 0.9999 0.0084
vn -0.2918 0.9246 0.2448
vn -0.6921 0.4286 0.5808
vn -0.5977 -0.6255 0.5015
vn -0.0776 -0.9949 0.0651
vn 0.0716 0.9949 -0.0716
vn 0.2507 0.9350 -0.2507
vn 0.2014 0.9586 -0.2014
vn -0.0092 0.9999 0.0092
vn -0.2693 0.9246 0.2693
vn -0.6389 0.4286 0.6389
vn -0.5517 -0.6255 0.5517
vn -0.0716 -0.9949 0.0716
vn 0.0651 0.9949 -0.0776
vn 0.2279 0.9350 -0.2716
vn 0.1831 0.9586 -0.2182
vn -0.0084 0.9999 0.0100
vn -0.2448 0.9246 0.2918
vn -0.5808 0.4286 0.6921
vn -0.5015 -0.6255 0.5977
vn -0.0651 -0.9949 0.0776
vn 0.0581 0.9949 -0.0829
vn 0.2034 0.9350 -0.2904
vn 0.1634 0.9586 -0.2334
vn -0.0075 0.9999 0.0107
vn -0.2185 0.9246 0.3120
vn -0.5182 0.4286 0.7401
vn -0.4475 -0.6255 0.6391
vn -0.0581 -0.9949 0.0829
vn 0.0506 0.9949 -0.0877
vn 0.1773 0.9350 -0.3070
vn 0.1424 0.9586 -0.2467
vn -0.0065 0.9999 0.0113
vn -0.1904 0.9246 0.3299
vn -0.4518 0.4286 0.7825
vn -0.3901 -0.6255 0.6757
vn -0.0506 -0.9949 0.0877
vn 0.0428 0.9949 -0.0918
vn 0.1498 0.9350 -0.3213
vn 0.1204 0.9586 -0.2582
vn -0.0055 0.9999 0.0118
vn -0.1610 0.9246 0.3452
vn -0.3818 0.4286 0.8189
vn -0.3297 -0.6255 0.7071
vn -0.0428 -0.9949 0.0918
vn 0.0346 0.9949 -0.0951
vn 0.1213 0.9350 -0.3332
vn 0.0974 0.9586 -0.2677
vn -0.0045 0.9999 0.0123
vn -0.1303 0.9246 0.3579
vn -0.3090 0.4286 0.8490
vn -0.2669 -0.6255 0.7332
vn -0.0346 -0.9949 0.0951
vn 0.0262 0.9949 -0.0978
vn 0.0918 0.9350 -0.3425
vn 0.0737 0.9586 -0.2752
vn -0.0034 0.9999 0.0126
vn -0.0986 0.9246 0.3679
vn -0.2338 0.4286 0.8727
vn -0.2019 -0.6255 0.7536
vn -0.0262 -0.9949 0.0978
vn 0.0176 0.9949 -0.0997
vn 0.0616 0.9350 -0.3492
vn 0.0495 0.9586 -0.2805
vn -0.0023 0.9999 0.0128
vn -0.0661 0.9246 0.3751
vn -0.1569 0.4286 0.8898
vn -0.1355 -0.6255 0.7684
vn -0.0176 -0.9949 0.0997
vn 0.0088 0.9949 -0.1009
vn 0.0309 0.9350 -0.3532
vn 0.0248 0.9586 -0.2838
vn -0.0011 0.9999 0.0130
vn -0.0332 0.9246 0.3794
vn -0.0787 0.4286 0.9001
vn -0.0680 -0.6255 0.7773
vn -0.0088 -0.9949 0.1009
vn -0.0000 0.9949 -0.1012
vn -0.0000 0.9350 -0.3545
vn -0.0000 0.9586 -0.2849
vn -0.0000 0.9999 0.0130
vn -0.0000 0.9246 0.3809
vn -0.0000 0.4286 0.9035
vn -0.0000 -0.6255 0.7802
vn -0.0000 -0.9949 0.1012
vn -0.0088 0.9949 -0.1009
vn -0.0309 0.9350 -0.3532
vn -0.0248 0.9586 -0.2838
vn 0.0011 0.9999 0.0130
vn 0.0332 0.9246 0.3794
vn 0.0787 0.4286 0.9001
vn 0.0680 -0.6255 0.7773
vn 0.0088 -0.9949 0.1009
vn -0.0176 0.9949 -0.0997
vn -0.0616 0.9350 -0.3492
vn -0.0495 0.9586 -0.2805
vn 0.0023 0.9999 0.0128
vn 0.0661 0.9246 0.3751
vn 0.1569 0.4286 0.8898
vn 0.1355 -0.6255 0.7684
vn 0.0176 -0.9949 0.0997
vn -0.0262 0.9949 -0.0978
vn -0.0918 0.9350 -0.3425
vn -0.0737 0.9586 -0.2752
vn 0.0034 0.9999 0.0126
vn 0.0986 0.9246 0.3679
vn 0.2338 0.4286 0.8727
vn 0.2019 -0.6255 0.7536
vn 0.0262 -0.9949 0.0978
vn -0.0346 0.9949 -0.0951
vn -0.1213 0.9350 -0.3332
vn -0.0974 0.9586 -0.2677
vn 0.0045 0.9999 0.0123
vn 0.1303 0.9246 0.3579
vn 0.3090 0.4286 0.8490
vn 0.2669 -0.6255 0.7332
vn 0.0346 -0.9949 0.0951
vn -0.0428 0.9949 -0.0918
vn -0.1498 0.9350 -0.3213
vn -0.1204 0.9586 -0.2582
vn 0.0055 0.9999 0.0118
vn 0.1610 0.9246 0.3452
vn 0.3818 0.4286 0.8189
vn 0.3297 -0.6255 0.7071
vn 0.0428 -0.9949 0.0918
vn -0.0506 0.9949 -0.0877
vn -0.1773 0.9350 -0.3070
vn -0.1424 0.9586 -0.2467
vn 0.0065 0.9999 0.0113
vn 0.1904 0.9246 0.3299
vn 0.4518 0.4286 0.7825
vn 0.3901 -0.6255 0.6757
vn 0.0506 -0.9949 0.0877
vn -0.0581 0.9949 -0.0829
vn -0.2034 0.9350 -0.2904
vn -0.1634 0.9586 -0.2334
vn 0.0075 0.9999 0.0107
vn 0.2185 0.9246 0.3120
vn 0.5182 0.4286 0.7401
vn 0.4475 -0.6255 0.6391
vn 0.0581 -0.9949 0.0829
vn -0.0651 0.9949 -0.0776
vn -0.2279 0.9350 -0.2716
vn -0.1831 0.9586 -0.2182
vn 0.0084 0.9999 0.0100
vn 0.2448 0.9246 0.2918
vn 0.5808 0.4286 0.6921
vn 0.5015 -0.6255 0.5977
vn 0.0651 -0.9949 0.0776
vn -0.0716 0.9949 -0.0716
vn -0.2507 0.9350 -0.2507
vn -0.2014 0.9586 -0.2014
vn 0.0092 0.9999 0.0092
vn 0.2693 0.9246 0.2693
vn 0.6389 0.4286 0.6389
vn 0.5517 -0.6255 0.5517
vn 0.0716 -0.9949 0.0716
vn -0.0776 0.9949 -0.0651
vn -0.2716 0.9350 -0.2279
vn -0.2182 0.9586 -0.1831
vn 0.0100 0.9999 0.0084
vn 0.2918 0.9246 0.2448
vn 0.6921 0.4286 0.5808
vn 0.5977 -0.6255 0.5015
vn 0.0776 -0.9949 0.0651
vn -0.0829 0.9949 -0.0581
vn -0.2904 0.9350 -0.2034
vn -0.2334 0.9586 -0.1634
vn 0.0107 0.9999 0.0075
vn 0.3120 0.9246 0.2185
vn 0.7401 0.4286 0.5182
vn 0.6391 -0.6255 0.4475
vn 0.0829 -0.9949 0.0581
vn -0.0877 0.9949 -0.0506
vn -0.3070 0.9350 -0.1773
vn -0.2467 0.9586 -0.1424
vn 0.0113 0.9999 0.0065
vn 0.3299 0.9246 0.1904
vn 0.7825 0.4286 0.4518
vn 0.6757 -0.6255 0.3901
vn 0.0877 -0.9949 0.0506
vn -0.0918 0.9949 -0.0428
vn -0.3213 0.9350 -0.1498
vn -0.2582 0.9586 -0.1204
vn 0.0118 0.9999 0.0055
vn 0.3452 0.9246 0.1610
vn 0.8189 0.4286 0.3818
vn 0.7071 -0.6255 0.3297
vn 0.0918 -0.9949 0.0428
vn -0.0951 0.9949 -0.0346
vn -0.3332 0.9350 -0.1213
vn -0.2677 0.9586 -0.0974
vn 0.0123 0.9999 0.0045
vn 0.3579 0.9246 0.1303
vn 0.8490 0.4286 0.3090
vn 0.7332 -0.6255 0.2669
vn 0.0951 -0.9949 0.0346
vn -0.0978 0.9949 -0.0262
vn -0.3425 0.9350 -0.0918
vn -0.2752 0.9586 -0.0737
vn 0.0126 0.9999 0.0034
vn 0.3679 0.9246 0.0986
vn 0.8727 0.4286 0.2338
vn 0.7536 -0.6255 0.2019
vn 0.0978 -0.9949 0.0262
vn -0.0997 0.9949 -0.0176
vn -0.3492 0.9350 -0.0616
vn -0.2805 0.9586 -0.0495
vn 0.0128 0.9999 0.0023
vn 0.3751 0.9246 0.0661
vn 0.8898 0.4286 0.1569
vn 0.7684 -0.6255 0.1355
vn 0.0997 -0.9949 0.0176
vn -0.1009 0.9949 -0.0088
vn -0.3532 0.9350 -0.0309
vn -0.2838 0.9586 -0.0248
vn 0.0130 0.9999 0.0011
vn 0.3794 0.9246 0.0332
vn 0.9001 0.4286 0.0787
vn 0.7773 -0.6255 0.0680
vn 0.1009 -0.9949 0.0088
vn -0.1012 0.9949 -0.0000
vn 0.3809 0.9246 -0.0000
vn 0.9035 0.4286 -0.0000
s 1
f 577//577 13//13 12//12
f 2//2 10//10 9//9
f 5//5 13//13 578//578
f 4//4 10//10 3//3
f 1//1 576//576 8//8
f 6//6 14//14 5//5
f 4//4 12//12 11//11
f 576//576 9//9 8//8
f 6//6 7//7 15//15
f 14//14 21//21 13//13
f 11//11 18//18 10//10
f 1//1 8//8 16//16
f 14//14 23//23 22//22
f 11//11 20//20 19//19
f 9//9 16//16 8//8
f 15//15 7//7 23//23
f 13//13 20//20 12//12
f 10//10 17//17 9//9
f 19//19 28//28 27//27
f 17//17 24//24 16//16
f 23//23 7//7 31//31
f 20//20 29//29 28//28
f 17//17 26//26 25//25
f 22//22 29//29 21//21
f 19//19 26//26 18//18
f 1//1 16//16 24//24
f 23//23 30//30 22//22
f 25//25 34//34 33//33
f 30//30 37//37 29//29
f 27//27 34//34 26//26
f 1//1 24//24 32//32
f 30//30 39//39 38//38
f 28//28 35//35 27//27
f 25//25 32//32 24//24
f 31//31 7//7 39//39
f 29//29 36//36 28//28
f 1//1 32//32 40//40
f 38//38 47//47 46//46
f 36//36 43//43 35//35
f 33//33 40//40 32//32
f 39//39 7//7 47//47
f 36//36 45//45 44//44
f 33//33 42//42 41//41
f 38//38 45//45 37//37
f 35//35 42//42 34//34
f 44//44 53//53 52//52
f 41//41 50//50 49//49
f 46//46 53//53 45//45
f 43//43 50//50 42//42
f 1//1 40//40 48//48
f 47//47 54//54 46//46
f 44//44 51//51 43//43
f 41//41 48//48 40//40
f 47//47 7//7 55//55
f 51//51 58//58 50//50
f 1//1 48//48 56//56
f 55//55 62//62 54//54
f 51//51 60//60 59//59
f 49//49 56//56 48//48
f 55//55 7//7 63//63
f 52//52 61//61 60//60
f 49//49 58//58 57//57
f 54//54 61//61 53//53
f 57//57 64//64 56//56
f 63//63 7//7 71//71
f 61//61 68//68 60//60
f 57//57 66//66 65//65
f 62//62 69//69 61//61
f 59//59 66//66 58//58
f 1//1 56//56 64//64
f 63//63 70//70 62//62
f 59//59 68//68 67//67
f 70//70 77//77 69//69
f 67//67 74//74 66//66
f 1//1 64//64 72//72
f 70//70 79//79 78//78
f 67//67 76//76 75//75
f 65//65 72//72 64//64
f 71//71 7//7 79//79
f 69//69 76//76 68//68
f 65//65 74//74 73//73
f 78//78 87//87 86//86
f 75//75 84//84 83//83
f 73//73 80//80 72//72
f 79//79 7//7 87//87
f 77//77 84//84 76//76
f 73//73 82//82 81//81
f 78//78 85//85 77//77
f 75//75 82//82 74//74
f 1//1 72//72 80//80
f 85//85 92//92 84//84
f 81//81 90//90 89//89
f 86//86 93//93 85//85
f 83//83 90//90 82//82
f 1//1 80//80 88//88
f 86//86 95//95 94//94
f 83//83 92//92 91//91
f 81//81 88//88 80//80
f 87//87 7//7 95//95
f 91//91 98//98 90//90
f 1//1 88//88 96//96
f 94//94 103//103 102//102
f 91//91 100//100 99//99
f 89//89 96//96 88//88
f 95//95 7//7 103//103
f 93//93 100//100 92//92
f 89//89 98//98 97//97
f 94//94 101//101 93//93
f 97//97 104//104 96//96
f 103//103 7//7 111//111
f 101//101 108//108 100//100
f 97//97 106//106 105//105
f 102//102 109//109 101//101
f 99//99 106//106 98//98
f 1//1 96//96 104//104
f 102//102 111//111 110//110
f 99//99 108//108 107//107
f 110//110 117//117 109//109
f 107//107 114//114 106//106
f 1//1 104//104 112//112
f 111//111 118//118 110//110
f 107//107 116//116 115//115
f 105//105 112//112 104//104
f 111//111 7//7 119//119
f 109//109 116//116 108//108
f 105//105 114//114 113//113
f 115//115 124//124 123//123
f 113//113 120//120 112//112
f 119//119 7//7 127//127
f 117//117 124//124 116//116
f 113//113 122//122 121//121
f 118//118 125//125 117//117
f 115//115 122//122 114//114
f 1//1 112//112 120//120
f 118//118 127//127 126//126
f 121//121 130//130 129//129
f 126//126 133//133 125//125
f 123//123 130//130 122//122
f 1//1 120//120 128//128
f 126//126 135//135 134//134
f 123//123 132//132 131//131
f 121//121 128//128 120//120
f 127//127 7//7 135//135
f 125//125 132//132 124//124
f 1//1 128//128 136//136
f 134//134 143//143 142//142
f 131//131 140//140 139//139
f 129//129 136//136 128//128
f 135//135 7//7 143//143
f 133//133 140//140 132//132
f 129//129 138//138 137//137
f 134//134 141//141 133//133
f 131//131 138//138 130//130
f 143//143 7//7 151//151
f 141//141 148//148 140//140
f 137//137 146//146 145//145
f 142//142 149//149 141//141
f 139//139 146//146 138//138
f 1//1 136//136 144//144
f 142//142 151//151 150//150
f 139//139 148//148 147//147
f 137//137 144//144 136//136
f 150//150 157//157 149//149
f 147//147 154//154 146//146
f 1//1 144//144 152//152
f 150//150 159//159 158//158
f 147//147 156//156 155//155
f 145//145 152//152 144//144
f 151//151 7//7 159//159
f 149//149 156//156 148//148
f 145//145 154//154 153//153
f 155//155 164//164 163//163
f 153//153 160//160 152//152
f 159//159 7//7 167//167
f 157//157 164//164 156//156
f 153//153 162//162 161//161
f 158//158 165//165 157//157
f 155//155 162//162 154//154
f 1//1 152//152 160//160
f 158//158 167//167 166//166
f 161//161 170//170 169//169
f 166//166 173//173 165//165
f 163//163 170//170 162//162
f 1//1 160//160 168//168
f 166//166 175//175 174//174
f 163//163 172//172 171//171
f 161//161 168//168 160//160
f 167//167 7//7 175//175
f 165//165 172//172 164//164
f 1//1 168//168 176//176
f 174//174 183//183 182//182
f 171//171 180//180 179//179
f 169//169 176//176 168//168
f 175//175 7//7 183//183
f 173//173 180//180 172//172
f 169//169 178//178 177//177
f 174//174 181//181 173//173
f 171//171 178//178 170//170
f 181//181 188//188 180//180
f 177//177 186//186 185//185
f 182//182 189//189 181//181
f 179//179 186//186 178//178
f 1//1 176//176 184//184
f 182//182 191//191 190//190
f 179//179 188//188 187//187
f 177//177 184//184 176//176
f 183//183 7//7 191//191
f 187//187 194//194 186//186
f 1//1 184//184 192//192
f 190//190 199//199 198//198
f 187//187 196//196 195//195
f 185//185 192//192 184//184
f 191//191 7//7 199//199
f 189//189 196//196 188//188
f 185//185 194//194 193//193
f 190//190 197//197 189//189
f 193//193 200//200 192//192
f 199//199 7//7 207//207
f 197//197 204//204 196//196
f 193//193 202//202 201//201
f 198//198 205//205 197//197
f 195//195 202//202 194//194
f 1//1 192//192 200//200
f 198//198 207//207 206//206
f 195//195 204//204 203//203
f 206//206 213//213 205//205
f 203//203 210//210 202//202
f 1//1 200//200 208//208
f 206//206 215//215 214//214
f 203//203 212//212 211//211
f 201//201 208//208 200//200
f 207//207 7//7 215//215
f 205//205 212//212 204//204
f 201//201 210//210 209//209
f 214//214 223//223 222//222
f 211//211 220//220 219//219
f 209//209 216//216 208//208
f 215//215 7//7 223//223
f 213//213 220//220 212//212
f 209//209 218//218 217//217
f 214//214 221//221 213//213
f 211//211 218//218 210//210
f 1//1 208//208 216//216
f 221//221 228//228 220//220
f 217//217 226//226 225//225
f 222//222 229//229 221//221
f 219//219 226//226 218//218
f 1//1 216//216 224//224
f 222//222 231//231 230//230
f 219//219 228//228 227//227
f 217//217 224//224 216//216
f 223//223 7//7 231//231
f 227//227 234//234 226//226
f 1//1 224//224 232//232
f 230//230 239//239 238//238
f 227//227 236//236 235//235
f 225//225 232//232 224//224
f 231//231 7//7 239//239
f 229//229 236//236 228//228
f 225//225 234//234 233//233
f 230//230 237//237 229//229
f 233//233 240//240 232//232
f 239//239 7//7 247//247
f 237//237 244//244 236//236
f 233//233 242//242 241//241
f 238//238 245//245 237//237
f 235//235 242//242 234//234
f 1//1 232//232 240//240
f 238//238 247//247 246//246
f 235//235 244//244 243//243
f 246//246 253//253 245//245
f 243//243 250//250 242//242
f 1//1 240//240 248//248
f 246//246 255//255 254//254
f 243//243 252//252 251//251
f 241//241 248//248 240//240
f 247//247 7//7 255//255
f 245//245 252//252 244//244
f 241//241 250//250 249//249
f 251//251 260//260 259//259
f 249//249 256//256 248//248
f 255//255 7//7 263//263
f 253//253 260//260 252//252
f 249//249 258//258 257//257
f 254//254 261//261 253//253
f 251//251 258//258 250//250
f 1//1 248//248 256//256
f 254//254 263//263 262//262
f 257//257 266//266 265//265
f 262//262 269//269 261//261
f 259//259 266//266 258//258
f 1//1 256//256 264//264
f 262//262 271//271 270//270
f 259//259 268//268 267//267
f 257//257 264//264 256//256
f 263//263 7//7 271//271
f 261//261 268//268 260//260
f 1//1 264//264 272//272
f 270//270 279//279 278//278
f 267//267 276//276 275//275
f 265//265 272//272 264//264
f 271//271 7//7 279//279
f 269//269 276//276 268//268
f 265//265 274//274 273//273
f 270//270 277//277 269//269
f 267//267 274//274 266//266
f 279//279 7//7 287//287
f 277//277 284//284 276//276
f 273//273 282//282 281//281
f 278//278 285//285 277//277
f 275//275 282//282 274//274
f 1//1 272//272 280//280
f 278//278 287//287 286//286
f 275//275 284//284 283//283
f 273//273 280//280 272//272
f 286//286 293//293 285//285
f 283//283 290//290 282//282
f 1//1 280//280 288//288
f 286//286 295//295 294//294
f 283//283 292//292 291//291
f 281//281 288//288 280//280
f 287//287 7//7 295//295
f 285//285 292//292 284//284
f 281//281 290//290 289//289
f 291//291 300//300 299//299
f 289//289 296//296 288//288
f 295//295 7//7 303//303
f 293//293 300//300 292//292
f 289//289 298//298 297//297
f 294//294 301//301 293//293
f 291//291 298//298 290//290
f 1//1 288//288 296//296
f 294//294 303//303 302//302
f 297//297 306//306 305//305
f 302//302 309//309 301//301
f 299//299 306//306 298//298
f 1//1 296//296 304//304
f 302//302 311//311 310//310
f 299//299 308//308 307//307
f 297//297 304//304 296//296
f 303//303 7//7 311//311
f 301//301 308//308 300//300
f 1//1 304//304 312//312
f 310//310 319//319 318//318
f 307//307 316//316 315//315
f 305//305 312//312 304//304
f 311//311 7//7 319//319
f 309//309 316//316 308//308
f 305//305 314//314 313//313
f 310//310 317//317 309//309
f 307//307 314//314 306//306
f 317//317 324//324 316//316
f 313//313 322//322 321//321
f 318//318 325//325 317//317
f 315//315 322//322 314//314
f 1//1 312//312 320//320
f 318//318 327//327 326//326
f 315//315 324//324 323//323
f 313//313 320//320 312//312
f 319//319 7//7 327//327
f 323//323 330//330 322//322
f 1//1 320//320 328//328
f 326//326 335//335 334//334
f 323//323 332//332 331//331
f 321//321 328//328 320//320
f 327//327 7//7 335//335
f 325//325 332//332 324//324
f 321//321 330//330 329//329
f 326//326 333//333 325//325
f 329//329 336//336 328//328
f 335//335 7//7 343//343
f 333//333 340//340 332//332
f 329//329 338//338 337//337
f 334//334 341//341 333//333
f 331//331 338//338 330//330
f 1//1 328//328 336//336
f 334//334 343//343 342//342
f 331//331 340//340 339//339
f 342//342 349//349 341//341
f 339//339 346//346 338//338
f 1//1 336//336 344//344
f 342//342 351//351 350//350
f 339//339 348//348 347//347
f 337//337 344//344 336//336
f 343//343 7//7 351//351
f 341//341 348//348 340//340
f 337//337 346//346 345//345
f 350//350 359//359 358//358
f 347//347 356//356 355//355
f 345//345 352//352 344//344
f 351//351 7//7 359//359
f 349//349 356//356 348//348
f 345//345 354//354 353//353
f 350//350 357//357 349//349
f 347//347 354//354 346//346
f 1//1 344//344 352//352
f 357//357 364//364 356//356
f 353//353 362//362 361//361
f 358//358 365//365 357//357
f 355//355 362//362 354//354
f 1//1 352//352 360//360
f 358//358 367//367 366//366
f 355//355 364//364 363//363
f 353//353 360//360 352//352
f 359//359 7//7 367//367
f 363//363 370//370 362//362
f 1//1 360//360 368//368
f 366//366 375//375 374//374
f 363//363 372//372 371//371
f 361//361 368//368 360//360
f 367//367 7//7 375//375
f 365//365 372//372 364//364
f 361//361 370//370 369//369
f 366//366 373//373 365//365
f 369//369 376//376 368//368
f 375//375 7//7 383//383
f 373//373 380//380 372//372
f 369//369 378//378 377//377
f 374//374 381//381 373//373
f 371//371 378//378 370//370
f 1//1 368//368 376//376
f 374//374 383//383 382//382
f 371//371 380//380 379//379
f 382//382 389//389 381//381
f 379//379 386//386 378//378
f 1//1 376//376 384//384
f 382//382 391//391 390//390
f 379//379 388//388 387//387
f 377//377 384//384 376//376
f 383//383 7//7 391//391
f 381//381 388//388 380//380
f 377//377 386//386 385//385
f 387//387 396//396 395//395
f 385//385 392//392 384//384
f 391//391 7//7 399//399
f 389//389 396//396 388//388
f 385//385 394//394 393//393
f 390//390 397//397 389//389
f 387//387 394//394 386//386
f 1//1 384//384 392//392
f 390//390 399//399 398//398
f 393//393 402//402 401//401
f 398//398 405//405 397//397
f 395//395 402//402 394//394
f 1//1 392//392 400//400
f 398//398 407//407 406//406
f 395//395 404//404 403//403
f 393//393 400//400 392//392
f 399//399 7//7 407//407
f 397//397 404//404 396//396
f 1//1 400//400 408//408
f 406//406 415//415 414//414
f 403//403 412//412 411//411
f 401//401 408//408 400//400
f 407//407 7//7 415//415
f 405//405 412//412 404//404
f 401//401 410//410 409//409
f 406//406 413//413 405//405
f 403//403 410//410 402//402
f 415//415 7//7 423//423
f 413//413 420//420 412//412
f 409//409 418//418 417//417
f 414//414 421//421 413//413
f 411//411 418//418 410//410
f 1//1 408//408 416//416
f 414//414 423//423 422//422
f 411//411 420//420 419//419
f 409//409 416//416 408//408
f 422//422 429//429 421//421
f 419//419 426//426 418//418
f 1//1 416//416 424//424
f 422//422 431//431 430//430
f 419//419 428//428 427//427
f 417//417 424//424 416//416
f 423//423 7//7 431//431
f 421//421 428//428 420//420
f 417//417 426//426 425//425
f 427//427 436//436 435//435
f 425//425 432//432 424//424
f 431//431 7//7 439//439
f 429//429 436//436 428//428
f 425//425 434//434 433//433
f 430//430 437//437 429//429
f 427//427 434//434 426//426
f 1//1 424//424 432//432
f 430//430 439//439 438//438
f 433//433 442//442 441//441
f 438//438 445//445 437//437
f 435//435 442//442 434//434
f 1//1 432//432 440//440
f 438//438 447//447 446//446
f 435//435 444//444 443//443
f 433//433 440//440 432//432
f 439//439 7//7 447//447
f 437//437 444//444 436//436
f 1//1 440//440 448//448
f 446//446 455//455 454//454
f 443//443 452//452 451//451
f 441//441 448//448 440//440
f 447//447 7//7 455//455
f 445//445 452//452 444//444
f 441//441 450//450 449//449
f 446//446 453//453 445//445
f 443//443 450//450 442//442
f 453//453 460//460 452//452
f 449//449 458//458 457//457
f 454//454 461//461 453//453
f 451//451 458//458 450//450
f 1//1 448//448 456//456
f 454//454 463//463 462//462
f 451//451 460//460 459//459
f 449//449 456//456 448//448
f 455//455 7//7 463//463
f 459//459 466//466 458//458
f 1//1 456//456 464//464
f 462//462 471//471 470//470
f 459//459 468//468 467//467
f 457//457 464//464 456//456
f 463//463 7//7 471//471
f 461//461 468//468 460//460
f 457//457 466//466 465//465
f 462//462 469//469 461//461
f 465//465 472//472 464//464
f 471//471 7//7 479//479
f 469//469 476//476 468//468
f 465//465 474//474 473//473
f 470//470 477//477 469//469
f 467//467 474//474 466//466
f 1//1 464//464 472//472
f 470//470 479//479 478//478
f 467//467 476//476 475//475
f 478//478 485//485 477//477
f 475//475 482//482 474//474
f 1//1 472//472 480//480
f 478//478 487//487 486//486
f 475//475 484//484 483//483
f 473//473 480//480 472//472
f 479//479 7//7 487//487
f 477//477 484//484 476//476
f 473//473 482//482 481//481
f 486//486 495//495 494//494
f 483//483 492//492 491//491
f 481//481 488//488 480//480
f 487//487 7//7 495//495
f 485//485 492//492 484//484
f 481//481 490//490 489//489
f 486//486 493//493 485//485
f 483//483 490//490 482//482
f 1//1 480//480 488//488
f 493//493 500//500 492//492
f 489//489 498//498 497//497
f 494//494 501//501 493//493
f 491//491 498//498 490//490
f 1//1 488//488 496//496
f 494//494 503//503 502//502
f 491//491 500//500 499//499
f 489//489 496//496 488//488
f 495//495 7//7 503//503
f 499//499 506//506 498//498
f 1//1 496//496 504//504
f 502//502 511//511 510//510
f 499//499 508//508 507//507
f 497//497 504//504 496//496
f 503//503 7//7 511//511
f 501//501 508//508 500//500
f 497//497 506//506 505//505
f 502//502 509//509 501//501
f 505//505 512//512 504//504
f 511//511 7//7 519//519
f 509//509 516//516 508//508
f 505//505 514//514 513//513
f 510//510 517//517 509//509
f 507//507 514//514 506//506
f 1//1 504//504 512//512
f 510//510 519//519 518//518
f 507//507 516//516 515//515
f 518//518 525//525 517//517
f 515//515 522//522 514//514
f 1//1 512//512 520//520
f 518//518 527//527 526//526
f 515//515 524//524 523//523
f 513//513 520//520 512//512
f 519//519 7//7 527//527
f 517//517 524//524 516//516
f 513//513 522//522 521//521
f 523//523 532//532 531//531
f 521//521 528//528 520//520
f 527//527 7//7 535//535
f 525//525 532//532 524//524
f 521//521 530//530 529//529
f 526//526 533//533 525//525
f 523//523 530//530 522//522
f 1//1 520//520 528//528
f 526//526 535//535 534//534
f 529//529 538//538 537//537
f 534//534 541//541 533//533
f 531//531 538//538 530//530
f 1//1 528//528 536//536
f 534//534 543//543 542//542
f 531//531 540//540 539//539
f 529//529 536//536 528//528
f 535//535 7//7 543//543
f 533//533 540//540 532//532
f 1//1 536//536 544//544
f 542//542 551//551 550//550
f 539//539 548//548 547//547
f 537//537 544//544 536//536
f 543//543 7//7 551//551
f 540//540 549//549 548//548
f 537//537 546//546 545//545
f 542//542 549//549 541//541
f 539//539 546//546 538//538
f 551//551 7//7 559//559
f 549//549 556//556 548//548
f 545//545 554//554 553//553
f 550//550 557//557 549//549
f 547//547 554//554 546//546
f 1//1 544//544 552//552
f 550//550 559//559 558//558
f 547//547 556//556 555//555
f 545//545 552//552 544//544
f 558//558 565//565 557//557
f 555//555 562//562 554//554
f 1//1 552//552 560//560
f 558//558 567//567 566//566
f 555//555 564//564 563//563
f 553//553 560//560 552//552
f 559//559 7//7 567//567
f 557//557 564//564 556//556
f 553//553 562//562 561//561
f 563//563 572//572 571//571
f 561//561 568//568 560//560
f 567//567 7//7 575//575
f 565//565 572//572 564//564
f 561//561 570//570 569//569
f 566//566 573//573 565//565
f 563//563 570//570 562//562
f 1//1 560//560 568//568
f 566//566 575//575 574//574
f 569//569 3//3 2//2
f 574//574 578//578 573//573
f 570//570 4//4 3//3
f 1//1 568//568 576//576
f 575//575 5//5 574//574
f 571//571 577//577 4//4
f 569//569 576//576 568//568
f 575//575 7//7 6//6
f 572//572 578//578 577//577
f 577//577 578//578 13//13
f 2//2 3//3 10//10
f 5//5 14//14 13//13
f 4//4 11//11 10//10
f 6//6 15//15 14//14
f 4//4 577//577 12//12
f 576//576 2//2 9//9
f 14//14 22//22 21//21
f 11//11 19//19 18//18
f 14//14 15//15 23//23
f 11//11 12//12 20//20
f 9//9 17//17 16//16
f 13//13 21//21 20//20
f 10//10 18//18 17//17
f 19//19 20//20 28//28
f 17//17 25//25 24//24
f 20//20 21//21 29//29
f 17//17 18//18 26//26
f 22//22 30//30 29//29
f 19//19 27//27 26//26
f 23//23 31//31 30//30
f 25//25 26//26 34//34
f 30//30 38//38 37//37
f 27//27 35//35 34//34
f 30//30 31//31 39//39
f 28//28 36//36 35//35
f 25//25 33//33 32//32
f 29//29 37//37 36//36
f 38//38 39//39 47//47
f 36//36 44//44 43//43
f 33//33 41//41 40//40
f 36//36 37//37 45//45
f 33//33 34//34 42//42
f 38//38 46//46 45//45
f 35//35 43//43 42//42
f 44//44 45//45 53//53
f 41//41 42//42 50//50
f 46//46 54//54 53//53
f 43//43 51//51 50//50
f 47//47 55//55 54//54
f 44//44 52//52 51//51
f 41//41 49//49 48//48
f 51//51 59//59 58//58
f 55//55 63//63 62//62
f 51//51 52//52 60//60
f 49//49 57//57 56//56
f 52//52 53//53 61//61
f 49//49 50//50 58//58
f 54//54 62//62 61//61
f 57//57 65//65 64//64
f 61//61 69//69 68//68
f 57//57 58//58 66//66
f 62//62 70//70 69//69
f 59//59 67//67 66//66
f 63//63 71//71 70//70
f 59//59 60//60 68//68
f 70//70 78//78 77//77
f 67//67 75//75 74//74
f 70//70 71//71 79//79
f 67//67 68//68 76//76
f 65//65 73//73 72//72
f 69//69 77//77 76//76
f 65//65 66//66 74//74
f 78//78 79//79 87//87
f 75//75 76//76 84//84
f 73//73 81//81 80//80
f 77//77 85//85 84//84
f 73//73 74//74 82//82
f 78//78 86//86 85//85
f 75//75 83//83 82//82
f 85//85 93//93 92//92
f 81//81 82//82 90//90
f 86//86 94//94 93//93
f 83//83 91//91 90//90
f 86//86 87//87 95//95
f 83//83 84//84 92//92
f 81//81 89//89 88//88
f 91//91 99//99 98//98
f 94//94 95//95 103//103
f 91//91 92//92 100//100
f 89//89 97//97 96//96
f 93//93 101//101 100//100
f 89//89 90//90 98//98
f 94//94 102//102 101//101
f 97//97 105//105 104//104
f 101//101 109//109 108//108
f 97//97 98//98 106//106
f 102//102 110//110 109//109
f 99//99 107//107 106//106
f 102//102 103//103 111//111
f 99//99 100//100 108//108
f 110//110 118//118 117//117
f 107//107 115//115 114//114
f 111//111 119//119 118//118
f 107//107 108//108 116//116
f 105//105 113//113 112//112
f 109//109 117//117 116//116
f 105//105 106//106 114//114
f 115//115 116//116 124//124
f 113//113 121//121 120//120
f 117//117 125//125 124//124
f 113//113 114//114 122//122
f 118//118 126//126 125//125
f 115//115 123//123 122//122
f 118//118 119//119 127//127
f 121//121 122//122 130//130
f 126//126 134//134 133//133
f 123//123 131//131 130//130
f 126//126 127//127 135//135
f 123//123 124//124 132//132
f 121//121 129//129 128//128
f 125//125 133//133 132//132
f 134//134 135//135 143//143
f 131//131 132//132 140//140
f 129//129 137//137 136//136
f 133//133 141//141 140//140
f 129//129 130//130 138//138
f 134//134 142//142 141//141
f 131//131 139//139 138//138
f 141//141 149//149 148//148
f 137//137 138//138 146//146
f 142//142 150//150 149//149
f 139//139 147//147 146//146
f 142//142 143//143 151//151
f 139//139 140//140 148//148
f 137//137 145//145 144//144
f 150//150 158//158 157//157
f 147//147 155//155 154//154
f 150//150 151//151 159//159
f 147//147 148//148 156//156
f 145//145 153//153 152//152
f 149//149 157//157 156//156
f 145//145 146//146 154//154
f 155//155 156//156 164//164
f 153//153 161//161 160//160
f 157//157 165//165 164//164
f 153//153 154//154 162//162
f 158//158 166//166 165//165
f 155//155 163//163 162//162
f 158//158 159//159 167//167
f 161//161 162//162 170//170
f 166//166 174//174 173//173
f 163//163 171//171 170//170
f 166//166 167//167 175//175
f 163//163 164//164 172//172
f 161//161 169//169 168//168
f 165//165 173//173 172//172
f 174//174 175//175 183//183
f 171//171 172//172 180//180
f 169//169 177//177 176//176
f 173//173 181//181 180//180
f 169//169 170//170 178//178
f 174//174 182//182 181//181
f 171//171 179//179 178//178
f 181//181 189//189 188//188
f 177//177 178//178 186//186
f 182//182 190//190 189//189
f 179//179 187//187 186//186
f 182//182 183//183 191//191
f 179//179 180//180 188//188
f 177//177 185//185 184//184
f 187//187 195//195 194//194
f 190//190 191//191 199//199
f 187//187 188//188 196//196
f 185//185 193//193 192//192
f 189//189 197//197 196//196
f 185//185 186//186 194//194
f 190//190 198//198 197//197
f 193//193 201//201 200//200
f 197//197 205//205 204//204
f 193//193 194//194 202//202
f 198//198 206//206 205//205
f 195//195 203//203 202//202
f 198//198 199//199 207//207
f 195//195 196//196 204//204
f 206//206 214//214 213//213
f 203//203 211//211 210//210
f 206//206 207//207 215//215
f 203//203 204//204 212//212
f 201//201 209//209 208//208
f 205//205 213//213 212//212
f 201//201 202//202 210//210
f 214//214 215//215 223//223
f 211//211 212//212 220//220
f 209//209 217//217 216//216
f 213//213 221//221 220//220
f 209//209 210//210 218//218
f 214//214 222//222 221//221
f 211//211 219//219 218//218
f 221//221 229//229 228//228
f 217//217 218//218 226//226
f 222//222 230//230 229//229
f 219//219 227//227 226//226
f 222//222 223//223 231//231
f 219//219 220//220 228//228
f 217//217 225//225 224//224
f 227//227 235//235 234//234
f 230//230 231//231 239//239
f 227//227 228//228 236//236
f 225//225 233//233 232//232
f 229//229 237//237 236//236
f 225//225 226//226 234//234
f 230//230 238//238 237//237
f 233//233 241//241 240//240
f 237//237 245//245 244//244
f 233//233 234//234 242//242
f 238//238 246//246 245//245
f 235//235 243//243 242//242
f 238//238 239//239 247//247
f 235//235 236//236 244//244
f 246//246 254//254 253//253
f 243//243 251//251 250//250
f 246//246 247//247 255//255
f 243//243 244//244 252//252
f 241//241 249//249 248//248
f 245//245 253//253 252//252
f 241//241 242//242 250//250
f 251//251 252//252 260//260
f 249//249 257//257 256//256
f 253//253 261//261 260//260
f 249//249 250//250 258//258
f 254//254 262//262 261//261
f 251//251 259//259 258//258
f 254//254 255//255 263//263
f 257//257 258//258 266//266
f 262//262 270//270 269//269
f 259//259 267//267 266//266
f 262//262 263//263 271//271
f 259//259 260//260 268//268
f 257//257 265//265 264//264
f 261//261 269//269 268//268
f 270//270 271//271 279//279
f 267//267 268//268 276//276
f 265//265 273//273 272//272
f 269//269 277//277 276//276
f 265//265 266//266 274//274
f 270//270 278//278 277//277
f 267//267 275//275 274//274
f 277//277 285//285 284//284
f 273//273 274//274 282//282
f 278//278 286//286 285//285
f 275//275 283//283 282//282
f 278//278 279//279 287//287
f 275//275 276//276 284//284
f 273//273 281//281 280//280
f 286//286 294//294 293//293
f 283//283 291//291 290//290
f 286//286 287//287 295//295
f 283//283 284//284 292//292
f 281//281 289//289 288//288
f 285//285 293//293 292//292
f 281//281 282//282 290//290
f 291//291 292//292 300//300
f 289//289 297//297 296//296
f 293//293 301//301 300//300
f 289//289 290//290 298//298
f 294//294 302//302 301//301
f 291//291 299//299 298//298
f 294//294 295//295 303//303
f 297//297 298//298 306//306
f 302//302 310//310 309//309
f 299//299 307//307 306//306
f 302//302 303//303 311//311
f 299//299 300//300 308//308
f 297//297 305//305 304//304
f 301//301 309//309 308//308
f 310//310 311//311 319//319
f 307//307 308//308 316//316
f 305//305 313//313 312//312
f 309//309 317//317 316//316
f 305//305 306//306 314//314
f 310//310 318//318 317//317
f 307//307 315//315 314//314
f 317//317 325//325 324//324
f 313//313 314//314 322//322
f 318//318 326//326 325//325
f 315//315 323//323 322//322
f 318//318 319//319 327//327
f 315//315 316//316 324//324
f 313//313 321//321 320//320
f 323//323 331//331 330//330
f 326//326 327//327 335//335
f 323//323 324//324 332//332
f 321//321 329//329 328//328
f 325//325 333//333 332//332
f 321//321 322//322 330//330
f 326//326 334//334 333//333
f 329//329 337//337 336//336
f 333//333 341//341 340//340
f 329//329 330//330 338//338
f 334//334 342//342 341//341
f 331//331 339//339 338//338
f 334//334 335//335 343//343
f 331//331 332//332 340//340
f 342//342 350//350 349//349
f 339//339 347//347 346//346
f 342//342 343//343 351//351
f 339//339 340//340 348//348
f 337//337 345//345 344//344
f 341//341 349//349 348//348
f 337//337 338//338 346//346
f 350//350 351//351 359//359
f 347//347 348//348 356//356
f 345//345 353//353 352//352
f 349//349 357//357 356//356
f 345//345 346//346 354//354
f 350//350 358//358 357//357
f 347//347 355//355 354//354
f 357//357 365//365 364//364
f 353//353 354//354 362//362
f 358//358 366//366 365//365
f 355//355 363//363 362//362
f 358//358 359//359 367//367
f 355//355 356//356 364//364
f 353//353 361//361 360//360
f 363//363 371//371 370//370
f 366//366 367//367 375//375
f 363//363 364//364 372//372
f 361//361 369//369 368//368
f 365//365 373//373 372//372
f 361//361 362//362 370//370
f 366//366 374//374 373//373
f 369//369 377//377 376//376
f 373//373 381//381 380//380
f 369//369 370//370 378//378
f 374//374 382//382 381//381
f 371//371 379//379 378//378
f 374//374 375//375 383//383
f 371//371 372//372 380//380
f 382//382 390//390 389//389
f 379//379 387//387 386//386
f 382//382 383//383 391//391
f 379//379 380//380 388//388
f 377//377 385//385 384//384
f 381//381 389//389 388//388
f 377//377 378//378 386//386
f 387//387 388//388 396//396
f 385//385 393//393 392//392
f 389//389 397//397 396//396
f 385//385 386//386 394//394
f 390//390 398//398 397//397
f 387//387 395//395 394//394
f 390//390 391//391 399//399
f 393//393 394//394 402//402
f 398//398 406//406 405//405
f 395//395 403//403 402//402
f 398//398 399//399 407//407
f 395//395 396//396 404//404
f 393//393 401//401 400//400
f 397//397 405//405 404//404
f 406//406 407//407 415//415
f 403//403 404//404 412//412
f 401//401 409//409 408//408
f 405//405 413//413 412//412
f 401//401 402//402 410//410
f 406//406 414//414 413//413
f 403//403 411//411 410//410
f 413//413 421//421 420//420
f 409//409 410//410 418//418
f 414//414 422//422 421//421
f 411//411 419//419 418//418
f 414//414 415//415 423//423
f 411//411 412//412 420//420
f 409//409 417//417 416//416
f 422//422 430//430 429//429
f 419//419 427//427 426//426
f 422//422 423//423 431//431
f 419//419 420//420 428//428
f 417//417 425//425 424//424
f 421//421 429//429 428//428
f 417//417 418//418 426//426
f 427//427 428//428 436//436
f 425//425 433//433 432//432
f 429//429 437//437 436//436
f 425//425 426//426 434//434
f 430//430 438//438 437//437
f 427//427 435//435 434//434
f 430//430 431//431 439//439
f 433//433 434//434 442//442
f 438//438 446//446 445//445
f 435//435 443//443 442//442
f 438//438 439//439 447//447
f 435//435 436//436 444//444
f 433//433 441//441 440//440
f 437//437 445//445 444//444
f 446//446 447//447 455//455
f 443//443 444//444 452//452
f 441//441 449//449 448//448
f 445//445 453//453 452//452
f 441//441 442//442 450//450
f 446//446 454//454 453//453
f 443//443 451//451 450//450
f 453//453 461//461 460//460
f 449//449 450//450 458//458
f 454//454 462//462 461//461
f 451//451 459//459 458//458
f 454//454 455//455 463//463
f 451//451 452//452 460//460
f 449//449 457//457 456//456
f 459//459 467//467 466//466
f 462//462 463//463 471//471
f 459//459 460//460 468//468
f 457//457 465//465 464//464
f 461//461 469//469 468//468
f 457//457 458//458 466//466
f 462//462 470//470 469//469
f 465//465 473//473 472//472
f 469//469 477//477 476//476
f 465//465 466//466 474//474
f 470//470 478//478 477//477
f 467//467 475//475 474//474
f 470//470 471//471 479//479
f 467//467 468//468 476//476
f 478//478 486//486 485//485
f 475//475 483//483 482//482
f 478//478 479//479 487//487
f 475//475 476//476 484//484
f 473//473 481//481 480//480
f 477//477 485//485 484//484
f 473//473 474//474 482//482
f 486//486 487//487 495//495
f 483//483 484//484 492//492
f 481//481 489//489 488//488
f 485//485 493//493 492//492
f 481//481 482//482 490//490
f 486//486 494//494 493//493
f 483//483 491//491 490//490
f 493//493 501//501 500//500
f 489//489 490//490 498//498
f 494//494 502//502 501//501
f 491//491 499//499 498//498
f 494//494 495//495 503//503
f 491//491 492//492 500//500
f 489//489 497//497 496//496
f 499//499 507//507 506//506
f 502//502 503//503 511//511
f 499//499 500//500 508//508
f 497//497 505//505 504//504
f 501//501 509//509 508//508
f 497//497 498//498 506//506
f 502//502 510//510 509//509
f 505//505 513//513 512//512
f 509//509 517//517 516//516
f 505//505 506//506 514//514
f 510//510 518//518 517//517
f 507//507 515//515 514//514
f 510//510 511//511 519//519
f 507//507 508//508 516//516
f 518//518 526//526 525//525
f 515//515 523//523 522//522
f 518//518 519//519 527//527
f 515//515 516//516 524//524
f 513//513 521//521 520//520
f 517//517 525//525 524//524
f 513//513 514//514 522//522
f 523//523 524//524 532//532
f 521//521 529//529 528//528
f 525//525 533//533 532//532
f 521//521 522//522 530//530
f 526//526 534//534 533//533
f 523//523 531//531 530//530
f 526//526 527//527 535//535
f 529//529 530//530 538//538
f 534//534 542//542 541//541
f 531//531 539//539 538//538
f 534//534 535//535 543//543
f 531//531 532//532 540//540
f 529//529 537//537 536//536
f 533//533 541//541 540//540
f 542//542 543//543 551//551
f 539//539 540//540 548//548
f 537//537 545//545 544//544
f 540//540 541//541 549//549
f 537//537 538//538 546//546
f 542//542 550//550 549//549
f 539//539 547//547 546//546
f 549//549 557//557 556//556
f 545//545 546//546 554//554
f 550//550 558//558 557//557
f 547//547 555//555 554//554
f 550//550 551//551 559//559
f 547//547 548//548 556//556
f 545//545 553//553 552//552
f 558//558 566//566 565//565
f 555//555 563//563 562//562
f 558//558 559//559 567//567
f 555//555 556//556 564//564
f 553//553 561//561 560//560
f 557//557 565//565 564//564
f 553//553 554//554 562//562
f 563//563 564//564 572//572
f 561//561 569//569 568//568
f 565//565 573//573 572//572
f 561//561 562//562 570//570
f 566//566 574//574 573//573
f 563//563 571//571 570//570
f 566//566 567//567 575//575
f 569//569 570//570 3//3
f 574//574 5//5 578//578
f 570//570 571//571 4//4
f 575//575 6//6 5//5
f 571//571 572//572 577//577
f 569//569 2//2 576//576
f 572//572 573//573 578//578
