# Blender 5.1.2
# www.blender.org
o TeeExport
v 0.000000 0.000000 -1.790000
v 0.040000 0.000000 -1.670000
v 0.075000 0.000000 0.210000
v 0.085000 0.000000 1.210000
v 0.090000 0.000000 1.410000
v 0.086000 0.000000 1.530000
v 0.110000 0.000000 1.630000
v 0.200000 0.000000 1.710000
v 0.205000 0.000000 1.770000
v 0.175000 0.000000 1.790000
v 0.110000 0.000000 1.750000
v 0.000000 0.000000 1.710000
v 0.038042 0.012361 -1.670000
v 0.057063 0.018541 -1.190000
v 0.071329 0.023176 0.210000
v 0.080840 0.026266 1.210000
v 0.085595 0.027812 1.410000
v 0.081791 0.026575 1.530000
v 0.104616 0.033992 1.630000
v 0.190211 0.061803 1.710000
v 0.194967 0.063348 1.770000
v 0.166435 0.054078 1.790000
v 0.104616 0.033992 1.750000
v 0.032361 0.023511 -1.670000
v 0.048541 0.035267 -1.190000
v 0.060676 0.044084 0.210000
v 0.068766 0.049962 1.210000
v 0.072812 0.052901 1.410000
v 0.069575 0.050550 1.530000
v 0.088992 0.064656 1.630000
v 0.161803 0.117557 1.710000
v 0.165848 0.120496 1.770000
v 0.141578 0.102862 1.790000
v 0.088992 0.064656 1.750000
v 0.023511 0.032361 -1.670000
v 0.035267 0.048541 -1.190000
v 0.044084 0.060676 0.210000
v 0.049962 0.068766 1.210000
v 0.052901 0.072812 1.410000
v 0.050550 0.069575 1.530000
v 0.064656 0.088992 1.630000
v 0.117557 0.161803 1.710000
v 0.120496 0.165848 1.770000
v 0.102862 0.141578 1.790000
v 0.064656 0.088992 1.750000
v 0.012361 0.038042 -1.670000
v 0.018541 0.057063 -1.190000
v 0.023176 0.071329 0.210000
v 0.026266 0.080840 1.210000
v 0.027812 0.085595 1.410000
v 0.026575 0.081791 1.530000
v 0.033992 0.104616 1.630000
v 0.061803 0.190211 1.710000
v 0.063348 0.194967 1.770000
v 0.054078 0.166435 1.790000
v 0.033992 0.104616 1.750000
v 0.000000 0.040000 -1.670000
v 0.000000 0.060000 -1.190000
v -0.000000 0.075000 0.210000
v -0.000000 0.085000 1.210000
v -0.000000 0.090000 1.410000
v -0.000000 0.086000 1.530000
v 0.000000 0.110000 1.630000
v 0.000000 0.200000 1.710000
v -0.000000 0.205000 1.770000
v 0.000000 0.175000 1.790000
v 0.000000 0.110000 1.750000
v -0.012361 0.038042 -1.670000
v -0.018541 0.057063 -1.190000
v -0.023176 0.071329 0.210000
v -0.026266 0.080840 1.210000
v -0.027812 0.085595 1.410000
v -0.026575 0.081791 1.530000
v -0.033992 0.104616 1.630000
v -0.061803 0.190211 1.710000
v -0.063349 0.194967 1.770000
v -0.054078 0.166435 1.790000
v -0.033992 0.104616 1.750000
v -0.023511 0.032361 -1.670000
v -0.035267 0.048541 -1.190000
v -0.044084 0.060676 0.210000
v -0.049962 0.068766 1.210000
v -0.052901 0.072812 1.410000
v -0.050550 0.069575 1.530000
v -0.064656 0.088992 1.630000
v -0.117557 0.161803 1.710000
v -0.120496 0.165848 1.770000
v -0.102862 0.141578 1.790000
v -0.064656 0.088992 1.750000
v -0.032361 0.023511 -1.670000
v -0.048541 0.035267 -1.190000
v -0.060676 0.044084 0.210000
v -0.068766 0.049962 1.210000
v -0.072812 0.052901 1.410000
v -0.069575 0.050550 1.530000
v -0.088992 0.064656 1.630000
v -0.161803 0.117557 1.710000
v -0.165848 0.120496 1.770000
v -0.141578 0.102862 1.790000
v -0.088992 0.064656 1.750000
v -0.038042 0.012361 -1.670000
v -0.057063 0.018541 -1.190000
v -0.071329 0.023176 0.210000
v -0.080840 0.026266 1.210000
v -0.085595 0.027812 1.410000
v -0.081791 0.026575 1.530000
v -0.104616 0.033992 1.630000
v -0.190211 0.061803 1.710000
v -0.194967 0.063348 1.770000
v -0.166435 0.054078 1.790000
v -0.104616 0.033992 1.750000
v -0.040000 -0.000000 -1.670000
v -0.060000 0.000000 -1.190000
v -0.075000 -0.000000 0.210000
v -0.085000 -0.000000 1.210000
v -0.090000 -0.000000 1.410000
v -0.086000 -0.000000 1.530000
v -0.110000 0.000000 1.630000
v -0.200000 -0.000000 1.710000
v -0.205000 -0.000000 1.770000
v -0.175000 -0.000000 1.790000
v -0.110000 0.000000 1.750000
v -0.038042 -0.012361 -1.670000
v -0.057063 -0.018541 -1.190000
v -0.071329 -0.023176 0.210000
v -0.080840 -0.026266 1.210000
v -0.085595 -0.027812 1.410000
v -0.081791 -0.026575 1.530000
v -0.104616 -0.033992 1.630000
v -0.190211 -0.061803 1.710000
v -0.194967 -0.063349 1.770000
v -0.166435 -0.054078 1.790000
v -0.104616 -0.033992 1.750000
v -0.032361 -0.023511 -1.670000
v -0.048541 -0.035267 -1.190000
v -0.060676 -0.044084 0.210000
v -0.068766 -0.049962 1.210000
v -0.072812 -0.052901 1.410000
v -0.069575 -0.050550 1.530000
v -0.088992 -0.064656 1.630000
v -0.161803 -0.117557 1.710000
v -0.165848 -0.120496 1.770000
v -0.141578 -0.102862 1.790000
v -0.088992 -0.064656 1.750000
v -0.023511 -0.032361 -1.670000
v -0.035267 -0.048541 -1.190000
v -0.044084 -0.060676 0.210000
v -0.049962 -0.068766 1.210000
v -0.052901 -0.072812 1.410000
v -0.050550 -0.069575 1.530000
v -0.064656 -0.088992 1.630000
v -0.117557 -0.161803 1.710000
v -0.120496 -0.165848 1.770000
v -0.102862 -0.141578 1.790000
v -0.064656 -0.088992 1.750000
v -0.012361 -0.038042 -1.670000
v -0.018541 -0.057063 -1.190000
v -0.023176 -0.071329 0.210000
v -0.026266 -0.080840 1.210000
v -0.027812 -0.085595 1.410000
v -0.026575 -0.081791 1.530000
v -0.033992 -0.104616 1.630000
v -0.061803 -0.190211 1.710000
v -0.063348 -0.194967 1.770000
v -0.054078 -0.166435 1.790000
v -0.033992 -0.104616 1.750000
v -0.000000 -0.040000 -1.670000
v -0.000000 -0.060000 -1.190000
v 0.000000 -0.075000 0.210000
v 0.000000 -0.085000 1.210000
v 0.000000 -0.090000 1.410000
v -0.000000 -0.086000 1.530000
v -0.000000 -0.110000 1.630000
v 0.000000 -0.200000 1.710000
v 0.000000 -0.205000 1.770000
v 0.000000 -0.175000 1.790000
v -0.000000 -0.110000 1.750000
v 0.012361 -0.038042 -1.670000
v 0.018541 -0.057063 -1.190000
v 0.023176 -0.071329 0.210000
v 0.026266 -0.080840 1.210000
v 0.027812 -0.085595 1.410000
v 0.026575 -0.081791 1.530000
v 0.033992 -0.104616 1.630000
v 0.061803 -0.190211 1.710000
v 0.063349 -0.194967 1.770000
v 0.054078 -0.166435 1.790000
v 0.033992 -0.104616 1.750000
v 0.023511 -0.032361 -1.670000
v 0.035267 -0.048541 -1.190000
v 0.044084 -0.060676 0.210000
v 0.049962 -0.068766 1.210000
v 0.052901 -0.072812 1.410000
v 0.050550 -0.069575 1.530000
v 0.064656 -0.088992 1.630000
v 0.117557 -0.161803 1.710000
v 0.120496 -0.165848 1.770000
v 0.102862 -0.141578 1.790000
v 0.064656 -0.088992 1.750000
v 0.032361 -0.023511 -1.670000
v 0.048541 -0.035267 -1.190000
v 0.060676 -0.044084 0.210000
v 0.068766 -0.049962 1.210000
v 0.072812 -0.052901 1.410000
v 0.069575 -0.050550 1.530000
v 0.088992 -0.064656 1.630000
v 0.161803 -0.117557 1.710000
v 0.165848 -0.120496 1.770000
v 0.141578 -0.102862 1.790000
v 0.088992 -0.064656 1.750000
v 0.038042 -0.012361 -1.670000
v 0.057063 -0.018541 -1.190000
v 0.071329 -0.023176 0.210000
v 0.080840 -0.026266 1.210000
v 0.085595 -0.027812 1.410000
v 0.081791 -0.026575 1.530000
v 0.104616 -0.033992 1.630000
v 0.190211 -0.061803 1.710000
v 0.194967 -0.063348 1.770000
v 0.166435 -0.054078 1.790000
v 0.104616 -0.033992 1.750000
v 0.060000 0.000000 -1.190000
vn -0.0000 -0.0000 -1.0000
vn 0.9840 -0.0000 -0.1783
vn 0.9999 -0.0000 -0.0104
vn 0.9998 -0.0000 -0.0175
vn 1.0000 -0.0000 0.0042
vn 0.9948 -0.0000 -0.1023
vn 0.8495 -0.0000 -0.5276
vn 0.9014 -0.0000 -0.4330
vn 0.9093 -0.0000 0.4161
vn 0.0718 -0.0000 0.9974
vn -0.4433 -0.0000 0.8964
vn -0.0000 -0.0000 1.0000
vn 0.9358 0.3041 -0.1783
vn 0.9507 0.3089 -0.0261
vn 0.9510 0.3090 -0.0104
vn 0.9509 0.3090 -0.0175
vn 0.9510 0.3090 0.0042
vn 0.9461 0.3074 -0.1023
vn 0.8079 0.2625 -0.5276
vn 0.8573 0.2785 -0.4330
vn 0.8648 0.2810 0.4161
vn 0.0683 0.0222 0.9974
vn -0.4216 -0.1370 0.8964
vn 0.7961 0.5784 -0.1783
vn 0.8087 0.5876 -0.0261
vn 0.8090 0.5878 -0.0104
vn 0.8089 0.5877 -0.0175
vn 0.8090 0.5878 0.0042
vn 0.8048 0.5847 -0.1023
vn 0.6872 0.4993 -0.5276
vn 0.7292 0.5298 -0.4330
vn 0.7356 0.5345 0.4161
vn 0.0581 0.0422 0.9974
vn -0.3586 -0.2606 0.8964
vn 0.5784 0.7961 -0.1783
vn 0.5876 0.8087 -0.0261
vn 0.5878 0.8090 -0.0104
vn 0.5877 0.8089 -0.0175
vn 0.5878 0.8090 0.0042
vn 0.5847 0.8048 -0.1023
vn 0.4993 0.6872 -0.5276
vn 0.5298 0.7292 -0.4330
vn 0.5345 0.7356 0.4161
vn 0.0422 0.0581 0.9974
vn -0.2606 -0.3586 0.8964
vn 0.3041 0.9358 -0.1783
vn 0.3089 0.9507 -0.0261
vn 0.3090 0.9510 -0.0104
vn 0.3090 0.9509 -0.0175
vn 0.3090 0.9510 0.0042
vn 0.3074 0.9461 -0.1023
vn 0.2625 0.8079 -0.5276
vn 0.2785 0.8573 -0.4330
vn 0.2810 0.8648 0.4161
vn 0.0222 0.0683 0.9974
vn -0.1370 -0.4216 0.8964
vn -0.0000 0.9840 -0.1783
vn -0.0000 0.9997 -0.0261
vn -0.0000 0.9999 -0.0104
vn -0.0000 0.9998 -0.0175
vn -0.0000 1.0000 0.0042
vn -0.0000 0.9948 -0.1023
vn -0.0000 0.8495 -0.5276
vn -0.0000 0.9014 -0.4330
vn -0.0000 0.9093 0.4161
vn -0.0000 0.0718 0.9974
vn -0.0000 -0.4433 0.8964
vn -0.3041 0.9358 -0.1783
vn -0.3089 0.9507 -0.0261
vn -0.3090 0.9510 -0.0104
vn -0.3090 0.9509 -0.0175
vn -0.3090 0.9510 0.0042
vn -0.3074 0.9461 -0.1023
vn -0.2625 0.8079 -0.5276
vn -0.2785 0.8573 -0.4330
vn -0.2810 0.8648 0.4161
vn -0.0222 0.0683 0.9974
vn 0.1370 -0.4216 0.8964
vn -0.5784 0.7961 -0.1783
vn -0.5876 0.8087 -0.0261
vn -0.5878 0.8090 -0.0104
vn -0.5877 0.8089 -0.0175
vn -0.5878 0.8090 0.0042
vn -0.5847 0.8048 -0.1023
vn -0.4993 0.6872 -0.5276
vn -0.5298 0.7292 -0.4330
vn -0.5345 0.7356 0.4161
vn -0.0422 0.0581 0.9974
vn 0.2606 -0.3586 0.8964
vn -0.7961 0.5784 -0.1783
vn -0.8087 0.5876 -0.0261
vn -0.8090 0.5878 -0.0104
vn -0.8089 0.5877 -0.0175
vn -0.8090 0.5878 0.0042
vn -0.8048 0.5847 -0.1023
vn -0.6872 0.4993 -0.5276
vn -0.7292 0.5298 -0.4330
vn -0.7356 0.5345 0.4161
vn -0.0581 0.0422 0.9974
vn 0.3586 -0.2606 0.8964
vn -0.9358 0.3041 -0.1783
vn -0.9507 0.3089 -0.0261
vn -0.9510 0.3090 -0.0104
vn -0.9509 0.3090 -0.0175
vn -0.9510 0.3090 0.0042
vn -0.9461 0.3074 -0.1023
vn -0.8079 0.2625 -0.5276
vn -0.8573 0.2785 -0.4330
vn -0.8648 0.2810 0.4161
vn -0.0683 0.0222 0.9974
vn 0.4216 -0.1370 0.8964
vn -0.9840 -0.0000 -0.1783
vn -0.9997 -0.0000 -0.0261
vn -0.9999 -0.0000 -0.0104
vn -0.9998 -0.0000 -0.0175
vn -1.0000 -0.0000 0.0042
vn -0.9948 -0.0000 -0.1023
vn -0.8495 -0.0000 -0.5276
vn -0.9014 -0.0000 -0.4330
vn -0.9093 -0.0000 0.4161
vn -0.0718 -0.0000 0.9974
vn 0.4433 -0.0000 0.8964
vn -0.9358 -0.3041 -0.1783
vn -0.9507 -0.3089 -0.0261
vn -0.9510 -0.3090 -0.0104
vn -0.9509 -0.3090 -0.0175
vn -0.9510 -0.3090 0.0042
vn -0.9461 -0.3074 -0.1023
vn -0.8079 -0.2625 -0.5276
vn -0.8573 -0.2785 -0.4330
vn -0.8648 -0.2810 0.4161
vn -0.0683 -0.0222 0.9974
vn 0.4216 0.1370 0.8964
vn -0.7961 -0.5784 -0.1783
vn -0.8087 -0.5876 -0.0261
vn -0.8090 -0.5878 -0.0104
vn -0.8089 -0.5877 -0.0175
vn -0.8090 -0.5878 0.0042
vn -0.8048 -0.5847 -0.1023
vn -0.6872 -0.4993 -0.5276
vn -0.7292 -0.5298 -0.4330
vn -0.7356 -0.5345 0.4161
vn -0.0581 -0.0422 0.9974
vn 0.3586 0.2606 0.8964
vn -0.5784 -0.7961 -0.1783
vn -0.5876 -0.8087 -0.0261
vn -0.5878 -0.8090 -0.0104
vn -0.5877 -0.8089 -0.0175
vn -0.5878 -0.8090 0.0042
vn -0.5847 -0.8048 -0.1023
vn -0.4993 -0.6872 -0.5276
vn -0.5298 -0.7292 -0.4330
vn -0.5345 -0.7356 0.4161
vn -0.0422 -0.0581 0.9974
vn 0.2606 0.3586 0.8964
vn -0.3041 -0.9358 -0.1783
vn -0.3089 -0.9507 -0.0261
vn -0.3090 -0.9510 -0.0104
vn -0.3090 -0.9509 -0.0175
vn -0.3090 -0.9510 0.0042
vn -0.3074 -0.9461 -0.1023
vn -0.2625 -0.8079 -0.5276
vn -0.2785 -0.8573 -0.4330
vn -0.2810 -0.8648 0.4161
vn -0.0222 -0.0683 0.9974
vn 0.1370 0.4216 0.8964
vn -0.0000 -0.9840 -0.1783
vn -0.0000 -0.9997 -0.0261
vn -0.0000 -0.9999 -0.0104
vn -0.0000 -0.9998 -0.0175
vn -0.0000 -1.0000 0.0042
vn -0.0000 -0.9948 -0.1023
vn -0.0000 -0.8495 -0.5276
vn -0.0000 -0.9014 -0.4330
vn -0.0000 -0.9093 0.4161
vn -0.0000 -0.0718 0.9974
vn -0.0000 0.4433 0.8964
vn 0.3041 -0.9358 -0.1783
vn 0.3089 -0.9507 -0.0261
vn 0.3090 -0.9510 -0.0104
vn 0.3090 -0.9509 -0.0175
vn 0.3090 -0.9510 0.0042
vn 0.3074 -0.9461 -0.1023
vn 0.2625 -0.8079 -0.5276
vn 0.2785 -0.8573 -0.4330
vn 0.2810 -0.8648 0.4161
vn 0.0222 -0.0683 0.9974
vn -0.1370 0.4216 0.8964
vn 0.5784 -0.7961 -0.1783
vn 0.5876 -0.8087 -0.0261
vn 0.5878 -0.8090 -0.0104
vn 0.5877 -0.8089 -0.0175
vn 0.5878 -0.8090 0.0042
vn 0.5847 -0.8048 -0.1023
vn 0.4993 -0.6872 -0.5276
vn 0.5298 -0.7292 -0.4330
vn 0.5345 -0.7356 0.4161
vn 0.0422 -0.0581 0.9974
vn -0.2606 0.3586 0.8964
vn 0.7961 -0.5784 -0.1783
vn 0.8087 -0.5876 -0.0261
vn 0.8090 -0.5878 -0.0104
vn 0.8089 -0.5877 -0.0175
vn 0.8090 -0.5878 0.0042
vn 0.8048 -0.5847 -0.1023
vn 0.6872 -0.4993 -0.5276
vn 0.7292 -0.5298 -0.4330
vn 0.7356 -0.5345 0.4161
vn 0.0581 -0.0422 0.9974
vn -0.3586 0.2606 0.8964
vn 0.9358 -0.3041 -0.1783
vn 0.9507 -0.3089 -0.0261
vn 0.9510 -0.3090 -0.0104
vn 0.9509 -0.3090 -0.0175
vn 0.9510 -0.3090 0.0042
vn 0.9461 -0.3074 -0.1023
vn 0.8079 -0.2625 -0.5276
vn 0.8573 -0.2785 -0.4330
vn 0.8648 -0.2810 0.4161
vn 0.0683 -0.0222 0.9974
vn -0.4216 0.1370 0.8964
vn 0.9997 -0.0000 -0.0261
s 1
f 1//1 13//13 2//2
f 7//7 19//19 20//20 8//8
f 4//4 16//16 17//17 5//5
f 11//11 23//23 12//12
f 2//2 13//13 14//14 222//222
f 8//8 20//20 21//21 9//9
f 5//5 17//17 18//18 6//6
f 222//222 14//14 15//15 3//3
f 9//9 21//21 22//22 10//10
f 6//6 18//18 19//19 7//7
f 3//3 15//15 16//16 4//4
f 10//10 22//22 23//23 11//11
f 17//17 28//28 29//29 18//18
f 14//14 25//25 26//26 15//15
f 21//21 32//32 33//33 22//22
f 18//18 29//29 30//30 19//19
f 15//15 26//26 27//27 16//16
f 22//22 33//33 34//34 23//23
f 1//1 24//24 13//13
f 19//19 30//30 31//31 20//20
f 16//16 27//27 28//28 17//17
f 23//23 34//34 12//12
f 13//13 24//24 25//25 14//14
f 20//20 31//31 32//32 21//21
f 27//27 38//38 39//39 28//28
f 34//34 45//45 12//12
f 24//24 35//35 36//36 25//25
f 31//31 42//42 43//43 32//32
f 28//28 39//39 40//40 29//29
f 25//25 36//36 37//37 26//26
f 32//32 43//43 44//44 33//33
f 29//29 40//40 41//41 30//30
f 26//26 37//37 38//38 27//27
f 33//33 44//44 45//45 34//34
f 1//1 35//35 24//24
f 30//30 41//41 42//42 31//31
f 40//40 51//51 52//52 41//41
f 37//37 48//48 49//49 38//38
f 44//44 55//55 56//56 45//45
f 1//1 46//46 35//35
f 41//41 52//52 53//53 42//42
f 38//38 49//49 50//50 39//39
f 45//45 56//56 12//12
f 35//35 46//46 47//47 36//36
f 42//42 53//53 54//54 43//43
f 39//39 50//50 51//51 40//40
f 36//36 47//47 48//48 37//37
f 43//43 54//54 55//55 44//44
f 50//50 61//61 62//62 51//51
f 47//47 58//58 59//59 48//48
f 54//54 65//65 66//66 55//55
f 51//51 62//62 63//63 52//52
f 48//48 59//59 60//60 49//49
f 55//55 66//66 67//67 56//56
f 1//1 57//57 46//46
f 52//52 63//63 64//64 53//53
f 49//49 60//60 61//61 50//50
f 56//56 67//67 12//12
f 46//46 57//57 58//58 47//47
f 53//53 64//64 65//65 54//54
f 63//63 74//74 75//75 64//64
f 60//60 71//71 72//72 61//61
f 67//67 78//78 12//12
f 57//57 68//68 69//69 58//58
f 64//64 75//75 76//76 65//65
f 61//61 72//72 73//73 62//62
f 58//58 69//69 70//70 59//59
f 65//65 76//76 77//77 66//66
f 62//62 73//73 74//74 63//63
f 59//59 70//70 71//71 60//60
f 66//66 77//77 78//78 67//67
f 1//1 68//68 57//57
f 73//73 84//84 85//85 74//74
f 70//70 81//81 82//82 71//71
f 77//77 88//88 89//89 78//78
f 1//1 79//79 68//68
f 74//74 85//85 86//86 75//75
f 71//71 82//82 83//83 72//72
f 78//78 89//89 12//12
f 68//68 79//79 80//80 69//69
f 75//75 86//86 87//87 76//76
f 72//72 83//83 84//84 73//73
f 69//69 80//80 81//81 70//70
f 76//76 87//87 88//88 77//77
f 86//86 97//97 98//98 87//87
f 83//83 94//94 95//95 84//84
f 80//80 91//91 92//92 81//81
f 87//87 98//98 99//99 88//88
f 84//84 95//95 96//96 85//85
f 81//81 92//92 93//93 82//82
f 88//88 99//99 100//100 89//89
f 1//1 90//90 79//79
f 85//85 96//96 97//97 86//86
f 82//82 93//93 94//94 83//83
f 89//89 100//100 12//12
f 79//79 90//90 91//91 80//80
f 1//1 101//101 90//90
f 96//96 107//107 108//108 97//97
f 93//93 104//104 105//105 94//94
f 100//100 111//111 12//12
f 90//90 101//101 102//102 91//91
f 97//97 108//108 109//109 98//98
f 94//94 105//105 106//106 95//95
f 91//91 102//102 103//103 92//92
f 98//98 109//109 110//110 99//99
f 95//95 106//106 107//107 96//96
f 92//92 103//103 104//104 93//93
f 99//99 110//110 111//111 100//100
f 109//109 120//120 121//121 110//110
f 106//106 117//117 118//118 107//107
f 103//103 114//114 115//115 104//104
f 110//110 121//121 122//122 111//111
f 1//1 112//112 101//101
f 107//107 118//118 119//119 108//108
f 104//104 115//115 116//116 105//105
f 111//111 122//122 12//12
f 101//101 112//112 113//113 102//102
f 108//108 119//119 120//120 109//109
f 105//105 116//116 117//117 106//106
f 102//102 113//113 114//114 103//103
f 112//112 123//123 124//124 113//113
f 119//119 130//130 131//131 120//120
f 116//116 127//127 128//128 117//117
f 113//113 124//124 125//125 114//114
f 120//120 131//131 132//132 121//121
f 117//117 128//128 129//129 118//118
f 114//114 125//125 126//126 115//115
f 121//121 132//132 133//133 122//122
f 1//1 123//123 112//112
f 118//118 129//129 130//130 119//119
f 115//115 126//126 127//127 116//116
f 122//122 133//133 12//12
f 132//132 143//143 144//144 133//133
f 1//1 134//134 123//123
f 129//129 140//140 141//141 130//130
f 126//126 137//137 138//138 127//127
f 133//133 144//144 12//12
f 123//123 134//134 135//135 124//124
f 130//130 141//141 142//142 131//131
f 127//127 138//138 139//139 128//128
f 124//124 135//135 136//136 125//125
f 131//131 142//142 143//143 132//132
f 128//128 139//139 140//140 129//129
f 125//125 136//136 137//137 126//126
f 135//135 146//146 147//147 136//136
f 142//142 153//153 154//154 143//143
f 139//139 150//150 151//151 140//140
f 136//136 147//147 148//148 137//137
f 143//143 154//154 155//155 144//144
f 1//1 145//145 134//134
f 140//140 151//151 152//152 141//141
f 137//137 148//148 149//149 138//138
f 144//144 155//155 12//12
f 134//134 145//145 146//146 135//135
f 141//141 152//152 153//153 142//142
f 138//138 149//149 150//150 139//139
f 155//155 166//166 12//12
f 145//145 156//156 157//157 146//146
f 152//152 163//163 164//164 153//153
f 149//149 160//160 161//161 150//150
f 146//146 157//157 158//158 147//147
f 153//153 164//164 165//165 154//154
f 150//150 161//161 162//162 151//151
f 147//147 158//158 159//159 148//148
f 154//154 165//165 166//166 155//155
f 1//1 156//156 145//145
f 151//151 162//162 163//163 152//152
f 148//148 159//159 160//160 149//149
f 158//158 169//169 170//170 159//159
f 165//165 176//176 177//177 166//166
f 1//1 167//167 156//156
f 162//162 173//173 174//174 163//163
f 159//159 170//170 171//171 160//160
f 166//166 177//177 12//12
f 156//156 167//167 168//168 157//157
f 163//163 174//174 175//175 164//164
f 160//160 171//171 172//172 161//161
f 157//157 168//168 169//169 158//158
f 164//164 175//175 176//176 165//165
f 161//161 172//172 173//173 162//162
f 168//168 179//179 180//180 169//169
f 175//175 186//186 187//187 176//176
f 172//172 183//183 184//184 173//173
f 169//169 180//180 181//181 170//170
f 176//176 187//187 188//188 177//177
f 1//1 178//178 167//167
f 173//173 184//184 185//185 174//174
f 170//170 181//181 182//182 171//171
f 177//177 188//188 12//12
f 167//167 178//178 179//179 168//168
f 174//174 185//185 186//186 175//175
f 171//171 182//182 183//183 172//172
f 181//181 192//192 193//193 182//182
f 188//188 199//199 12//12
f 178//178 189//189 190//190 179//179
f 185//185 196//196 197//197 186//186
f 182//182 193//193 194//194 183//183
f 179//179 190//190 191//191 180//180
f 186//186 197//197 198//198 187//187
f 183//183 194//194 195//195 184//184
f 180//180 191//191 192//192 181//181
f 187//187 198//198 199//199 188//188
f 1//1 189//189 178//178
f 184//184 195//195 196//196 185//185
f 191//191 202//202 203//203 192//192
f 198//198 209//209 210//210 199//199
f 1//1 200//200 189//189
f 195//195 206//206 207//207 196//196
f 192//192 203//203 204//204 193//193
f 199//199 210//210 12//12
f 189//189 200//200 201//201 190//190
f 196//196 207//207 208//208 197//197
f 193//193 204//204 205//205 194//194
f 190//190 201//201 202//202 191//191
f 197//197 208//208 209//209 198//198
f 194//194 205//205 206//206 195//195
f 204//204 215//215 216//216 205//205
f 201//201 212//212 213//213 202//202
f 208//208 219//219 220//220 209//209
f 205//205 216//216 217//217 206//206
f 202//202 213//213 214//214 203//203
f 209//209 220//220 221//221 210//210
f 1//1 211//211 200//200
f 206//206 217//217 218//218 207//207
f 203//203 214//214 215//215 204//204
f 210//210 221//221 12//12
f 200//200 211//211 212//212 201//201
f 207//207 218//218 219//219 208//208
f 214//214 4//4 5//5 215//215
f 221//221 11//11 12//12
f 211//211 2//2 222//222 212//212
f 218//218 8//8 9//9 219//219
f 215//215 5//5 6//6 216//216
f 212//212 222//222 3//3 213//213
f 219//219 9//9 10//10 220//220
f 216//216 6//6 7//7 217//217
f 213//213 3//3 4//4 214//214
f 220//220 10//10 11//11 221//221
f 1//1 2//2 211//211
f 217//217 7//7 8//8 218//218
